<svg width="695" height="664" viewBox="0 0 695 664" fill="none" xmlns="http://www.w3.org/2000/svg">
<path d="M4.74079 520.18C4.74079 520.18 6.63711 518.507 6.63711 515.998H7.11119C7.11119 515.998 9.0075 514.326 9.48158 511.817C9.48158 511.817 12.8001 507.635 14.2224 504.29C14.2224 504.29 16.1187 500.945 17.5409 499.272C18.4891 498.436 19.4372 496.763 20.3854 495.091C21.8076 492.582 23.2299 490.073 24.178 487.564H24.6521C24.6521 487.564 25.1262 487.564 25.1262 486.728C25.1262 486.728 25.6003 487.564 26.0744 488.4C26.0744 490.073 25.6003 490.909 25.1262 492.582C23.2299 495.927 24.178 500.109 24.178 504.29C24.178 504.29 22.2817 510.144 24.178 513.489C24.178 514.326 24.178 515.162 25.1262 515.162C25.6003 515.162 26.0744 515.162 26.5484 515.162C28.9188 517.671 28.9188 517.671 30.8151 511.817C30.8151 511.817 31.2892 511.817 31.2892 510.144C31.7633 508.472 32.2374 505.963 33.1855 505.126C33.1855 505.126 33.6596 504.29 34.1337 503.454C34.1337 503.454 36.9782 500.109 37.9263 496.763C39.8226 493.418 41.719 490.073 43.6153 487.564C43.6153 487.564 43.6153 487.564 43.6153 486.728C43.6153 486.728 43.6153 486.728 43.6153 487.564C44.5634 485.891 45.9857 483.383 46.9338 481.71C46.9338 481.71 46.9338 480.874 46.9338 480.037C46.9338 480.037 46.9338 480.874 46.9338 481.71C47.4079 481.71 47.882 480.874 48.3561 479.201C50.2524 477.528 51.2005 475.019 52.6228 472.511C57.8377 466.656 61.6303 458.293 66.8452 452.439C66.8452 452.439 67.3192 452.439 67.7933 451.603V449.93C67.7933 449.93 67.7933 450.767 67.7933 451.603C69.2156 449.93 70.6378 447.422 71.5859 445.749H72.06C72.5341 445.749 73.4823 445.749 73.9563 445.749C73.9563 449.93 71.1119 450.767 70.1637 454.112C69.2156 454.112 68.7415 455.785 68.2674 457.457C65.897 461.639 63.5266 466.656 60.6821 470.002C59.2599 471.674 57.8377 474.183 56.8895 476.692C56.4154 476.692 55.9413 477.528 55.4673 478.365C54.5191 479.201 53.0969 480.874 53.5709 483.383C53.5709 485.891 55.4673 483.383 55.9413 485.055C55.9413 485.055 54.5191 488.4 54.045 490.073C53.5709 490.073 52.6228 490.073 52.1487 490.073V491.746C52.1487 491.746 52.1487 492.582 52.1487 493.418C52.1487 493.418 52.1487 493.418 51.6746 493.418C51.6746 493.418 51.6746 494.254 51.6746 495.091C51.6746 495.091 51.6746 495.927 51.6746 496.763H51.2005C51.2005 496.763 50.7265 496.763 50.2524 496.763H47.4079C47.4079 496.763 46.4598 496.763 46.4598 498.436C46.4598 499.272 46.9338 501.781 46.4598 500.945C44.0894 498.436 44.0894 500.945 43.1412 503.454C43.1412 502.617 42.193 502.617 42.193 503.454C41.2449 505.126 41.2449 505.963 42.6671 506.799C44.0894 506.799 45.5116 506.799 46.9338 505.126C48.3561 508.472 49.3042 505.126 49.7783 503.454C51.6746 503.454 51.6746 500.109 53.5709 500.109C53.5709 500.109 54.045 500.109 54.5191 500.109C54.5191 500.109 54.5191 499.272 54.5191 498.436C54.9932 495.927 55.9413 494.254 56.4154 491.746C57.3636 493.418 58.3117 495.091 58.7858 491.746C58.7858 490.073 58.7858 488.4 58.7858 486.728C58.7858 486.728 62.5784 479.201 65.897 480.874L66.8452 482.546C65.4229 485.055 63.5266 487.564 62.1044 490.073C62.1044 490.073 60.6821 493.418 60.208 495.091C60.208 495.091 60.6821 495.091 61.1562 495.091C61.1562 495.091 60.6821 495.091 60.208 495.091C58.7858 495.091 57.8377 496.763 57.3636 498.436C57.3636 498.436 57.3636 499.272 56.8895 499.272C55.9413 500.945 54.9932 502.617 54.045 504.29C54.045 504.29 53.5709 505.963 53.0969 505.963C53.0969 505.963 49.3042 511.817 47.4079 514.326C46.4598 515.998 45.5116 517.671 44.5634 519.343C44.5634 519.343 44.5634 520.18 44.5634 521.016C44.5634 521.016 44.0894 521.852 43.6153 521.852C43.6153 521.852 43.1412 522.689 42.6671 523.525C41.719 525.198 39.8226 525.198 39.8226 528.543C39.3486 531.052 36.9782 531.888 36.5041 536.07C38.8745 536.07 39.8226 533.561 40.7708 531.052C41.719 530.215 42.193 528.543 43.6153 529.379C43.6153 529.379 43.6153 530.215 43.6153 531.052C43.6153 531.052 43.6153 531.888 43.6153 532.724C43.6153 532.724 40.2967 540.251 38.4004 542.76C38.4004 542.76 37.9263 543.596 37.4522 544.433C37.4522 544.433 36.9782 544.433 36.5041 544.433C36.5041 542.76 36.5041 541.087 36.03 540.251C36.03 540.251 35.5559 540.251 35.0819 540.251C34.6078 541.924 35.0819 542.76 35.5559 544.433C36.03 546.105 36.5041 548.614 37.4522 549.45C37.4522 549.45 37.4523 549.45 37.9263 549.45C37.9263 549.45 37.9263 548.614 37.9263 547.778C37.9263 547.778 38.4004 547.778 38.8745 547.778C38.8745 547.778 39.3486 547.778 39.8226 547.778C39.8226 547.778 39.8226 549.45 39.8226 550.287C39.8226 551.123 38.8745 551.959 38.8745 552.796C38.4004 553.632 37.4523 555.304 36.9782 556.141C36.9782 556.141 36.5041 556.977 36.03 557.813C36.03 557.813 35.5559 558.65 35.0819 559.486C35.0819 559.486 34.6078 559.486 34.1337 560.322C33.6596 560.322 33.1855 561.159 32.2374 561.995C31.7633 563.667 31.2892 564.504 30.3411 565.34C29.867 565.34 29.867 564.504 29.3929 563.667C28.4447 561.159 27.4966 563.667 26.5484 563.667C26.5484 562.831 26.5484 561.159 26.5484 560.322C27.9707 558.65 27.4966 556.141 27.4966 553.632C27.4966 553.632 27.0225 554.468 26.5484 555.304C26.0744 555.304 25.6003 556.141 24.6521 556.977C23.2299 558.65 22.7558 561.159 21.8076 563.667C20.8595 563.667 20.8595 565.34 20.8595 567.013C20.3854 567.013 19.9113 568.685 20.3854 569.522C20.8595 570.358 21.3336 569.522 21.8076 568.685C22.7558 569.522 24.178 570.358 24.6521 572.03C24.6521 572.03 26.0744 572.031 26.5484 571.194C26.5484 569.522 27.0225 570.358 27.4966 571.194H28.4447C28.4447 571.194 28.4447 572.031 28.4447 572.867C27.4966 574.539 27.0225 576.212 27.0225 578.721C26.0744 580.394 24.178 582.066 23.704 584.575C23.704 584.575 24.6521 585.411 25.1262 584.575C25.1262 584.575 25.6003 584.575 26.0744 584.575C26.5484 583.739 27.4966 582.902 27.9707 581.23C27.9707 581.23 31.2892 578.721 30.8151 574.539C30.8151 574.539 32.2374 574.539 32.7115 572.867C32.7115 572.867 35.0819 570.358 35.5559 567.849C35.5559 567.849 35.5559 567.013 35.5559 566.176C35.5559 566.176 35.0819 565.34 34.6078 564.504C34.6078 564.504 35.0819 563.667 35.5559 562.831H36.03C37.4523 562.831 38.8745 562.831 38.8745 560.322C41.719 557.813 43.1412 552.796 45.5116 548.614C45.5116 548.614 48.3561 546.105 49.3042 543.596C49.3042 543.596 49.3042 540.251 50.2524 538.578C51.2005 534.397 53.5709 535.233 54.9932 533.561C54.9932 531.052 56.4154 530.215 57.8377 528.543C61.1562 525.198 63.0525 520.18 65.4229 515.162C66.8452 515.162 68.2674 514.326 68.7415 511.817C71.1119 510.144 72.06 505.963 74.4304 503.454C74.4304 503.454 74.9045 502.617 74.9045 501.781C74.9045 501.781 74.9045 500.945 74.9045 500.109C76.8008 498.436 78.6971 495.927 79.6453 491.746C79.6453 491.746 82.4898 487.564 83.912 485.055C83.912 485.055 84.3861 484.219 84.8602 483.383C84.8602 483.383 85.3342 482.546 85.8083 481.71C85.8083 481.71 86.2824 481.71 86.7565 481.71C87.2306 481.71 87.7046 480.874 87.7046 480.037C89.601 482.546 87.2306 483.383 86.7565 485.055C86.2824 485.891 85.8083 486.728 86.7565 488.4C86.7565 490.073 86.7565 490.073 86.2824 490.909C84.8602 490.909 83.912 491.746 85.3342 495.091V496.763C85.3342 496.763 85.3342 496.763 85.3342 495.927C83.4379 499.272 80.5934 499.272 80.1194 504.29C78.6971 505.963 76.8008 507.635 76.3267 510.144C74.4304 511.817 72.06 512.653 71.5859 516.835C71.5859 516.835 71.1119 518.507 70.6378 518.507H70.1637C69.2156 518.507 68.2674 519.343 67.7933 521.016C66.3711 523.525 65.897 526.87 64.0007 529.379C62.1044 532.724 60.2081 536.07 58.7858 539.415C57.8377 540.251 56.4154 539.415 55.9413 541.924C54.9932 546.105 52.1487 547.778 51.6746 551.959C51.6746 553.632 50.7265 554.468 49.7783 551.959C49.7783 551.959 48.8301 555.304 48.8301 556.977C47.882 559.486 46.4598 561.159 45.0375 561.995C41.719 563.667 39.8226 568.685 38.4004 573.703C38.4004 573.703 37.9263 573.703 37.4522 573.703C37.4522 573.703 36.5041 576.212 35.5559 577.048C34.1337 579.557 33.1855 582.066 31.7633 585.411C29.867 587.084 28.9188 589.593 28.9188 593.774C29.3929 593.774 29.867 592.938 30.8151 592.102C31.7633 592.102 33.6596 592.102 32.7115 588.757C32.7115 588.757 34.6078 588.757 34.1337 586.248C34.1337 584.575 34.6078 583.739 35.5559 583.739C35.5559 583.739 35.5559 584.575 35.5559 585.411C35.5559 585.411 36.03 585.411 36.5041 585.411C37.4523 585.411 37.9263 583.739 38.4004 582.066C38.4004 581.23 37.9263 579.557 37.9263 578.721C40.2967 578.721 42.193 574.539 44.5634 575.376C44.5634 575.376 44.5634 576.212 44.5634 577.048C44.5634 577.048 44.5634 577.885 44.0894 577.885C44.0894 577.885 43.6153 579.557 43.1412 579.557C43.1412 579.557 42.6671 580.394 42.193 581.23C41.2449 581.23 40.7708 582.902 40.2967 584.575C40.2967 584.575 38.8745 586.248 38.4004 587.92V589.593C38.4004 589.593 37.9263 591.265 37.4522 589.593C36.5041 590.429 36.03 592.938 35.5559 594.611C35.5559 594.611 35.5559 595.447 35.5559 596.283C35.5559 597.12 35.0819 597.12 34.6078 597.956C34.6078 597.956 33.6596 600.465 32.7115 601.301C32.7115 601.301 31.7633 604.646 30.8151 604.646C29.867 606.319 28.9188 608.828 28.9188 611.337C28.9188 611.337 27.0225 613.846 26.0744 616.355C26.0744 616.355 26.0744 618.863 25.1262 619.7C24.6521 619.7 25.1262 620.536 25.1262 621.372C26.0744 623.881 22.7558 626.39 25.1262 628.063C27.0225 628.899 27.9707 625.554 28.9188 623.045C31.7633 617.191 34.6078 611.337 37.4522 604.646C37.4522 604.646 37.9263 603.81 38.4004 602.974C41.719 600.465 42.6671 593.774 45.0375 590.429H45.5116C45.9857 589.593 46.9338 589.593 47.4079 588.757C47.4079 588.757 48.8301 586.248 49.3042 585.411C52.1487 585.411 53.0969 586.248 53.0969 578.721C53.0969 578.721 54.9932 576.212 55.9413 575.376C56.4154 574.539 56.8895 572.867 57.3636 572.03C59.2599 569.522 61.1562 567.849 63.0525 565.34C64.0007 565.34 63.0525 570.358 64.9488 567.013C66.3711 563.667 66.3711 561.159 65.897 557.813C65.897 557.813 68.2674 551.959 70.6378 551.123C71.1119 551.123 71.1119 552.796 70.6378 552.796C70.6378 554.468 70.6378 555.304 70.6378 556.141C71.5859 556.141 72.5341 556.141 72.5341 555.304C72.5341 549.45 76.3267 549.45 76.8008 544.433C76.8008 541.924 77.749 541.924 75.8527 540.251C75.8527 540.251 75.3786 540.251 74.9045 540.251C74.9045 539.415 74.9045 537.742 74.9045 536.906C76.3267 536.906 77.2749 536.906 78.6971 536.906C80.5935 536.906 81.0675 536.906 80.5935 535.233C80.5935 532.724 80.5935 531.052 82.4898 531.888C82.4898 531.888 85.3342 531.888 86.2824 530.215C86.7565 530.215 87.2306 530.215 88.1787 530.215C89.601 530.215 90.5491 530.215 91.9713 530.215C93.3936 531.888 94.3417 533.561 95.2899 529.379C95.2899 529.379 96.2381 529.379 96.2381 528.543C97.1862 526.87 98.1344 525.198 99.0825 523.525C99.0825 523.525 100.505 521.016 100.979 520.18C100.979 520.18 100.979 520.18 101.453 520.18C102.401 522.689 101.453 524.361 101.453 526.87C99.5566 529.379 98.1344 533.561 95.764 535.233C95.764 535.233 92.9195 534.397 91.9713 536.906C92.9195 538.578 92.9195 540.251 91.9713 541.924C91.9713 541.924 91.4973 542.76 91.0232 543.596C91.0232 543.596 90.075 541.924 89.601 543.596C89.1269 544.433 89.601 545.269 89.601 546.105V547.778C89.601 547.778 89.1269 548.614 88.6528 549.45C88.6528 551.123 88.1787 552.796 87.7046 554.468C87.7046 554.468 86.7565 555.304 86.7565 556.141C86.7565 556.141 87.2306 556.141 87.7046 556.977C87.7046 556.977 87.2306 556.141 86.7565 556.141C85.3342 556.141 84.8602 558.65 83.912 560.322C83.912 561.159 83.912 561.995 83.4379 561.995C81.0675 567.013 78.6971 572.867 76.3267 578.721C73.0082 582.902 70.1637 588.757 67.7933 594.611C66.3711 598.792 63.5266 602.137 62.1044 606.319C62.1044 607.155 63.0525 607.155 63.5266 606.319C65.897 603.81 68.2674 600.465 70.6378 597.956C73.9563 593.774 77.2749 589.593 80.1194 584.575C80.5934 584.575 81.5416 583.739 82.0157 582.902V584.575C82.0157 584.575 83.4379 584.575 83.912 582.902C84.3861 582.902 85.3342 581.23 85.8083 581.23C87.2306 579.557 88.6528 578.721 88.6528 575.376C88.6528 575.376 88.6528 575.376 88.6528 574.539C88.6528 574.539 88.6528 574.539 88.6528 575.376C88.6528 575.376 89.1269 575.376 89.601 575.376C91.4973 575.376 92.9195 573.703 93.8677 571.194C95.2899 568.685 96.7121 566.176 98.1344 564.504C99.5566 564.504 100.505 564.504 101.453 562.831C101.453 562.831 102.875 561.995 103.823 560.322C103.823 560.322 104.297 560.322 104.771 559.486C104.771 559.486 109.038 556.977 110.46 552.796C115.201 550.287 119.468 547.778 123.261 542.76C123.735 541.924 124.683 542.76 125.157 541.087C128.001 541.087 129.898 536.906 132.742 536.07C136.535 533.561 140.327 531.052 144.12 528.543C144.12 528.543 144.594 528.543 145.068 528.543C146.49 530.215 146.965 528.543 147.913 527.707C147.913 527.707 148.387 527.707 148.861 527.707C149.809 528.543 150.757 528.543 151.705 527.707C155.972 528.543 159.765 526.034 163.557 522.689C166.402 520.18 170.194 522.689 173.039 517.671C173.039 517.671 173.513 517.671 173.987 517.671H174.935C174.461 517.671 173.987 517.671 173.513 517.671C173.513 519.343 173.987 521.016 173.513 521.852C170.194 521.852 169.246 527.706 166.876 530.215C165.454 532.724 163.557 533.561 162.135 536.906C158.817 540.251 155.024 544.433 153.128 550.287C156.446 549.45 158.817 545.269 161.661 541.924C163.083 540.251 164.505 540.251 165.454 537.742C167.824 536.07 170.194 533.561 172.091 531.052C172.091 529.379 173.039 529.379 173.987 529.379C174.935 528.543 175.883 529.379 176.832 529.379C176.832 531.888 178.254 535.233 176.832 537.742C175.883 537.742 174.935 538.578 174.935 541.087C175.409 541.087 175.883 540.251 176.832 539.415C177.78 537.742 178.728 536.906 179.676 535.233C180.624 533.561 181.572 533.561 182.52 534.397C183.469 532.724 184.417 534.397 185.365 532.724C186.313 532.724 186.787 531.052 187.261 530.215C187.261 530.215 187.261 530.215 187.261 529.379V530.215C187.735 529.379 188.683 529.379 189.632 529.379C192.002 529.379 194.847 529.379 196.269 525.198C196.269 525.198 197.691 524.361 198.165 523.525C198.639 521.852 200.061 522.689 201.01 521.852C201.01 521.852 202.906 521.852 203.854 523.525C203.854 523.525 203.38 523.525 202.906 523.525L201.958 525.198C204.328 525.198 206.224 522.689 207.647 521.016C209.543 519.343 211.913 519.343 212.862 515.998C213.336 515.998 213.81 515.998 214.284 515.998C214.758 516.835 215.232 517.671 215.706 518.507C215.706 521.016 214.284 522.689 214.758 526.034C214.758 527.706 214.758 529.379 214.758 531.052C214.758 531.052 214.758 527.706 214.758 526.034C213.336 528.543 214.758 532.724 212.862 534.397C212.862 534.397 212.387 535.233 211.913 535.233C211.913 535.233 211.913 536.07 211.913 536.906C211.913 536.906 210.965 539.415 210.491 540.251C210.491 540.251 210.965 541.924 210.491 541.924C210.491 542.76 210.017 544.433 209.543 545.269C208.595 549.45 206.699 551.123 204.802 553.632C202.906 553.632 202.432 556.141 200.535 556.141C200.535 556.141 200.061 556.977 200.535 557.813C200.535 558.65 201.01 558.65 201.484 558.65C202.906 558.65 204.802 557.813 205.75 555.304C205.75 555.304 209.069 553.632 210.017 551.959C210.017 551.959 210.017 557.813 211.913 558.65C210.017 561.159 207.647 562.831 205.276 565.34C205.276 565.34 204.802 566.176 204.328 567.013C204.328 567.013 203.38 567.013 202.432 567.013C201.484 567.013 201.01 568.685 200.535 570.358C199.587 573.703 197.691 575.376 196.743 578.721C201.01 577.885 204.328 572.867 208.121 570.358C208.121 570.358 210.491 567.013 211.913 570.358C211.913 570.358 211.439 571.194 210.965 572.03C210.965 572.03 210.491 572.867 210.017 573.703C208.121 574.539 206.224 576.212 205.276 578.721C201.958 578.721 200.535 582.902 198.165 585.411C194.847 587.084 192.476 590.429 189.632 593.774C189.632 595.447 190.58 596.283 191.528 597.12C191.528 597.12 192.002 596.283 192.476 595.447C195.321 593.774 197.691 588.757 200.535 588.757C201.958 588.757 203.38 586.248 204.802 587.92C203.854 592.102 201.01 592.102 199.587 595.447C198.639 595.447 197.691 596.283 196.743 597.12C193.898 597.956 191.054 599.628 189.632 605.483C188.683 607.991 187.261 609.664 185.365 610.5C183.943 610.5 182.52 612.173 181.572 613.846C177.306 614.682 175.409 622.209 171.617 625.554C173.513 623.881 175.409 628.063 177.306 625.554C178.728 623.045 180.624 622.209 180.624 617.191H182.52C183.469 621.372 184.417 618.027 185.365 617.191H186.313C186.313 617.191 186.313 617.191 186.787 617.191C189.158 614.682 191.054 611.337 193.424 608.828C195.321 607.991 197.217 606.319 199.113 605.483C200.061 603.81 201.958 605.483 202.906 602.137C204.802 601.301 206.224 597.956 208.121 598.792C210.017 598.792 210.965 597.12 211.913 595.447C212.387 595.447 212.862 595.447 213.81 595.447C213.81 595.447 214.284 595.447 214.758 595.447V597.12C214.758 597.12 214.284 602.974 213.81 606.319C213.336 609.664 213.81 610.5 215.706 610.5C218.076 610.5 219.025 607.991 220.921 605.483C227.084 599.628 232.299 590.429 238.936 587.92C239.41 587.92 239.884 587.084 240.358 586.248C241.78 584.575 243.203 582.902 244.625 582.902C246.521 582.902 248.417 580.394 250.314 578.721C250.314 578.721 250.788 578.721 251.262 578.721C251.262 578.721 251.736 578.721 252.21 577.885C252.21 577.885 253.632 577.048 254.106 575.376C256.003 575.376 257.899 574.539 260.269 575.376C263.114 576.212 264.536 571.194 266.907 570.358C268.329 569.522 270.225 568.685 271.647 570.358C271.647 570.358 272.121 571.194 272.596 572.03C272.596 577.885 274.966 575.376 276.388 575.376C276.862 578.721 274.492 579.557 274.018 582.066C274.018 583.739 274.018 585.411 274.966 585.411C274.966 585.411 273.07 589.593 272.121 592.102C274.018 592.102 275.44 590.429 276.388 587.92C279.707 582.902 283.499 577.885 287.766 575.376C292.033 570.358 296.299 565.34 301.514 565.34C302.462 565.34 302.462 563.667 302.462 561.995C302.462 561.995 302.462 561.159 302.462 560.322C305.781 556.977 309.574 552.796 313.366 551.959C313.366 552.796 312.892 554.468 313.366 554.468C314.314 554.468 314.789 554.468 315.263 553.632C315.263 553.632 315.737 553.632 316.211 553.632C320.477 551.959 325.218 549.45 329.485 546.105C329.485 546.105 329.959 545.269 330.433 544.433C330.433 544.433 336.122 540.251 338.967 538.578C339.441 538.578 339.915 538.578 340.863 537.742C341.337 536.906 342.285 536.07 342.759 536.07C342.759 536.07 343.233 536.07 343.707 536.07C344.181 536.07 345.13 536.07 346.078 535.233C346.078 535.233 346.078 535.233 346.552 535.233C347.5 533.561 348.922 535.233 349.87 533.561C352.241 531.888 354.611 533.561 356.982 531.888C356.982 531.888 358.878 531.052 359.826 530.215C359.826 530.215 359.826 530.215 360.3 530.215C361.248 529.379 362.196 529.379 362.671 527.707C363.619 524.361 365.041 524.361 366.937 525.198C366.937 526.87 366.937 528.543 367.885 530.215C367.885 530.215 367.885 530.215 367.885 531.052C366.937 531.052 365.989 531.888 365.515 533.561C364.567 539.415 362.196 541.087 359.352 542.76C358.404 542.76 357.456 542.76 356.982 544.433C355.085 544.433 353.663 545.269 352.241 546.941C351.293 546.941 350.344 546.941 349.396 548.614C347.5 550.287 345.604 549.45 343.707 551.123C337.544 553.632 331.381 557.813 325.218 561.159C320.952 563.667 316.685 567.013 312.892 570.358C311.47 570.358 309.574 571.194 309.1 574.539C311.47 577.048 311.944 573.703 313.366 572.03C314.314 572.03 315.263 572.03 316.211 572.03C316.211 572.03 316.685 572.867 317.159 573.703C317.159 574.539 315.737 573.703 315.263 575.376C315.263 575.376 312.892 577.048 311.47 578.721C310.996 579.557 310.522 581.23 310.996 582.066C311.47 582.902 312.418 582.902 312.892 582.066C314.314 580.394 315.737 577.885 316.685 576.212C318.581 576.212 320.478 572.867 322.374 572.867C322.374 572.867 324.27 575.376 324.27 577.885C323.322 581.23 320.952 580.394 319.529 582.902C314.314 587.084 309.1 591.265 304.833 597.956C303.885 597.956 303.411 599.628 302.937 601.301C302.937 601.301 302.937 601.301 303.411 601.301C307.677 601.301 310.522 597.12 313.84 592.938C313.84 592.938 316.211 592.938 316.685 591.265C318.107 591.265 319.529 589.593 320.952 587.92C323.796 585.411 326.641 583.739 329.485 584.575C328.063 587.084 330.907 588.757 330.433 591.265C329.011 591.265 328.063 590.429 326.641 589.593C326.641 589.593 325.218 588.757 324.744 589.593C324.744 589.593 324.27 589.593 323.796 589.593C323.796 589.593 323.322 590.429 322.848 591.265C322.848 591.265 319.529 594.611 318.107 596.283C310.522 600.465 302.937 606.319 297.248 616.355C299.144 616.355 300.566 615.518 302.462 615.518C303.885 615.518 305.781 613.009 307.203 610.5C310.996 604.646 315.263 603.81 319.529 604.646C319.529 607.155 317.633 607.991 318.581 609.664C319.529 612.173 320.952 609.664 321.9 609.664C321.9 609.664 322.374 609.664 322.848 609.664C322.848 610.5 322.374 612.173 321.9 613.009C320.003 614.682 318.107 617.191 315.737 618.863C313.84 620.536 311.944 623.045 310.522 628.063C313.84 626.39 316.685 626.39 318.107 623.045C320.477 618.027 323.322 615.518 326.166 613.846C326.166 613.846 327.589 614.682 327.589 615.518C328.537 621.372 330.907 622.209 333.752 621.372C334.7 621.372 335.648 623.045 336.122 621.372C337.07 619.7 338.018 619.7 338.967 620.536C338.967 620.536 339.915 625.554 341.811 623.045C341.811 623.045 342.759 623.045 343.233 622.209C344.181 623.881 344.656 622.209 345.604 620.536C345.604 620.536 346.078 620.536 346.552 620.536C346.552 620.536 347.026 620.536 347.5 620.536C347.5 620.536 347.026 620.536 346.552 620.536C346.552 620.536 347.026 620.536 347.5 620.536C347.5 620.536 346.552 626.39 344.656 628.899C343.707 629.735 342.285 631.408 343.707 633.917C344.656 636.426 346.078 635.589 347.026 633.917C347.5 633.917 347.974 633.081 348.448 632.244C348.448 634.753 348.922 638.098 347.5 640.607C345.13 646.461 341.337 650.643 338.493 655.661C337.544 657.333 336.122 659.842 338.018 661.515C339.441 663.187 341.811 665.696 342.759 662.351C344.656 656.497 347.5 656.497 350.344 653.988C352.715 651.479 354.611 648.97 356.982 645.625C356.982 645.625 360.3 641.444 362.671 640.607C366.937 636.426 371.204 632.244 375.945 627.226C380.686 623.045 385.426 618.027 390.641 615.518C392.063 615.518 393.012 613.846 394.434 612.173H394.908C394.908 612.173 399.175 609.664 401.545 607.155C404.39 607.155 407.234 607.155 410.078 607.155C411.659 609.943 413.555 609.943 415.767 607.155C415.767 607.155 416.241 606.319 416.716 605.483H417.19C419.086 602.974 421.456 602.137 422.879 598.792C423.827 596.283 425.249 597.12 426.671 597.12C426.671 597.12 426.671 597.12 427.145 597.12C427.145 597.12 427.619 596.283 428.093 595.447C428.568 595.447 429.042 595.447 429.99 595.447C429.99 599.628 427.145 598.792 426.197 602.137C419.086 608.828 414.819 614.682 413.871 619.7C415.293 620.536 416.716 617.191 418.138 618.027C418.138 619.7 416.716 621.372 417.664 623.045C418.612 624.718 419.56 624.718 420.508 623.045C420.982 623.045 421.93 623.045 422.404 622.209C425.249 618.027 428.568 616.354 431.412 613.846C438.049 608.828 443.738 601.301 451.323 599.628C452.272 599.628 452.746 597.956 453.22 596.283C456.064 594.611 458.435 592.102 461.279 592.102C465.546 592.102 469.812 587.92 473.605 585.411C479.294 581.23 485.457 578.721 491.146 573.703C492.094 573.703 493.042 573.703 493.99 573.703C497.783 573.703 501.576 571.194 504.42 568.685C508.687 564.504 514.376 564.504 517.694 556.141C517.694 556.141 518.169 556.141 518.643 556.141C521.961 556.977 524.332 553.632 526.702 551.959C530.495 550.287 534.287 548.614 536.184 541.087C536.184 541.087 536.658 540.251 537.132 539.415C537.132 539.415 539.976 537.742 540.924 538.578C543.295 541.087 544.243 538.578 545.191 536.07C546.139 532.724 548.51 536.07 549.458 533.561C550.406 531.052 550.88 527.706 552.776 526.034C553.25 526.034 554.198 526.034 554.673 526.034C555.621 526.034 556.569 525.198 557.517 524.361C557.517 524.361 557.991 524.361 558.465 524.361C558.939 526.034 559.887 524.361 559.887 524.361C559.887 521.852 560.836 521.016 561.31 520.18C562.258 520.18 563.68 519.343 564.154 518.507C567.947 513.489 572.214 509.308 576.48 506.799C578.851 505.126 580.747 502.617 582.169 499.272C583.591 495.927 585.488 492.582 587.384 493.418C590.229 494.254 590.703 493.418 592.125 489.237C593.073 485.891 594.969 482.546 596.392 480.874C598.288 479.201 599.236 476.692 601.132 475.019C604.451 475.019 606.821 472.511 609.666 470.002C611.088 468.329 611.562 464.984 613.458 464.148C618.673 460.802 622.466 451.603 627.207 446.585C629.577 444.076 631.947 439.895 634.318 436.55C638.111 432.368 641.903 427.35 644.748 422.332C649.488 413.133 655.651 406.443 660.392 397.243C665.133 389.717 669.874 383.026 673.192 373.827C676.037 369.645 680.304 367.137 679.355 357.937C677.459 357.937 676.037 357.937 675.089 358.774H674.141C674.141 358.774 674.141 354.592 672.244 353.756C670.348 352.919 668.452 353.756 667.029 350.41V353.756C667.029 353.756 667.503 351.247 667.029 350.41C669.242 348.738 670.822 345.95 671.77 342.047C674.141 339.539 676.511 336.193 679.355 334.521C683.148 331.176 686.467 322.813 691.681 326.994C692.63 326.994 695 321.976 695 320.304C695 317.795 693.578 318.631 692.156 317.795C692.156 317.795 689.785 316.958 689.311 314.45C689.311 314.45 689.311 313.613 689.311 312.777C689.311 312.777 688.363 309.432 686.941 309.432C683.622 309.432 680.304 306.923 676.985 307.759C674.141 307.759 673.192 301.905 670.348 302.741C669.4 302.741 670.348 300.232 669.874 298.56C669.4 295.215 668.452 292.706 666.555 293.542C663.237 295.215 659.444 293.542 656.126 295.215C656.126 295.215 654.703 296.051 654.229 296.887H650.437C648.066 295.215 645.696 295.215 642.851 296.887C642.851 296.887 641.903 294.378 642.851 293.542C643.799 293.542 644.274 291.869 644.748 290.197C645.696 288.524 646.17 287.688 647.118 286.015C647.592 285.179 647.592 283.506 647.118 282.67C645.222 280.997 644.274 276.816 641.903 277.652C640.481 277.652 639.059 277.652 637.162 277.652C637.162 277.652 636.214 275.98 635.74 275.143C632.896 275.143 630.525 273.471 629.103 269.289C628.155 267.617 626.733 267.617 625.784 268.453C624.362 269.289 622.466 270.962 621.044 270.962C617.251 270.962 614.881 275.143 612.51 279.325C611.562 279.325 611.088 280.997 610.614 282.67C609.192 286.852 608.244 285.179 606.821 282.67C605.399 277.652 604.925 277.652 608.718 273.471C612.036 270.962 613.932 265.944 617.251 264.271C617.251 264.271 617.251 264.271 617.251 262.599C617.251 262.599 619.147 260.09 619.147 257.581C620.096 256.745 621.044 255.908 621.992 254.236C623.888 252.563 626.259 251.727 627.681 247.545C628.155 247.545 628.155 245.873 628.629 245.036C628.629 245.036 627.681 245.873 627.681 247.545C631.473 247.545 633.844 243.364 636.688 240.855C636.688 235.001 634.792 231.656 631.947 229.147C631.473 229.147 630.999 229.147 630.051 229.147C630.051 230.819 630.051 232.492 630.999 233.328C630.999 233.328 630.999 233.328 630.999 234.165C630.999 232.492 630.999 230.819 630.051 229.147C630.051 229.147 629.577 228.31 629.103 227.474C629.103 227.474 628.629 226.638 628.155 225.802C626.891 221.341 624.836 219.947 621.992 221.62C621.992 221.62 621.044 221.62 620.57 222.456C619.621 222.456 618.673 222.456 617.725 224.129C618.199 225.802 620.57 224.965 620.57 228.31C619.621 226.638 619.147 224.129 617.725 223.293C615.829 224.129 613.932 224.965 612.984 227.474C611.562 227.474 609.666 229.147 608.718 230.819C606.821 231.656 604.451 230.819 602.555 232.492C602.08 232.492 601.132 232.492 600.184 232.492C597.814 228.31 595.918 230.819 594.021 234.165C593.073 235.837 592.125 236.673 590.703 236.673C589.754 236.673 588.806 236.673 587.858 236.673C587.858 236.673 587.858 236.673 587.384 236.673C587.858 235.001 588.332 233.328 588.806 231.656C589.28 231.656 590.703 231.656 590.703 229.983C590.703 228.31 589.754 229.983 589.28 229.983C585.962 232.492 582.643 234.165 578.851 236.673C577.902 239.182 576.954 242.528 575.532 241.691C572.214 240.019 570.317 245.036 567.473 245.873C566.525 244.2 566.999 238.346 564.154 242.528H563.206C560.362 237.51 559.413 242.528 557.517 245.036C556.569 245.873 555.147 248.382 556.095 250.891C556.095 250.891 555.621 250.891 555.147 250.891C554.673 250.891 553.724 250.891 553.25 252.563C552.776 252.563 552.302 254.236 552.302 255.908C552.302 255.908 551.828 255.908 551.354 255.908C550.406 256.745 549.458 257.581 548.51 259.254C548.51 259.254 545.191 263.435 543.295 262.599C543.295 262.599 543.295 262.599 543.295 261.762C544.243 257.581 546.139 254.236 548.035 250.054C548.035 250.054 548.51 249.218 548.984 248.382C548.984 247.545 549.458 246.709 549.932 245.873C551.828 244.2 553.25 242.528 552.776 238.346C553.724 235.837 555.147 234.165 556.569 232.492C556.569 232.492 557.043 231.656 557.517 230.819C560.836 229.147 562.732 224.129 565.576 222.456C567.473 222.456 569.369 220.784 571.739 219.947C570.317 214.093 567.473 216.602 565.576 215.766C564.154 214.093 561.784 215.766 560.836 212.421C558.939 214.093 556.569 213.257 554.199 214.093C553.25 212.421 552.776 212.421 551.828 214.093C550.406 211.584 548.51 212.421 547.087 212.421C546.613 209.912 545.191 209.912 544.243 209.075C544.243 206.567 542.821 204.894 543.769 202.385C544.717 202.385 545.665 202.385 546.613 200.712C546.613 200.712 547.087 200.712 547.561 200.712C550.406 198.204 553.724 198.204 555.147 192.349C559.413 192.349 562.258 189.004 563.68 183.986C559.887 186.495 557.043 189.841 554.199 192.349C552.776 192.349 551.354 194.022 549.932 195.695C548.984 196.531 548.51 197.367 547.561 195.695C548.51 194.022 550.406 193.186 550.88 190.677C548.984 189.004 548.035 185.659 545.665 186.495C542.347 184.823 539.028 186.495 535.235 186.495C530.495 183.986 525.754 182.314 521.013 179.805C521.013 179.805 520.539 179.805 520.065 179.805C520.065 178.969 518.168 178.132 519.591 176.46C521.013 174.787 522.435 173.951 523.857 173.114C526.702 174.787 529.072 172.278 531.443 169.769C529.072 167.26 529.072 167.26 527.176 169.769C526.228 171.442 525.28 171.442 524.332 171.442C523.383 171.442 522.435 169.769 522.435 168.097C523.383 168.097 523.383 166.424 523.383 164.751C523.857 164.751 524.806 164.751 525.28 163.079C527.176 164.751 528.598 163.915 529.072 160.57C527.65 158.061 526.228 160.57 525.28 160.57C523.857 160.57 521.961 161.406 520.539 162.243C520.539 162.243 517.22 162.243 515.798 163.915C513.428 163.915 511.531 163.915 509.161 163.915C508.687 163.915 508.213 164.751 507.739 163.915C506.317 161.406 505.368 163.915 503.946 165.588C503.946 165.588 502.998 164.751 502.524 163.915C502.998 163.079 503.946 161.406 504.894 161.406C505.842 160.57 505.842 158.897 505.368 157.225C506.791 155.552 508.213 154.716 509.635 152.207C506.317 149.698 504.42 154.716 501.576 153.88C500.628 153.88 499.679 154.716 498.731 155.552C498.731 155.552 498.257 155.552 497.783 155.552C496.361 155.552 495.413 157.225 493.99 158.061C492.568 158.061 492.568 158.061 492.094 155.552H491.146C489.724 156.388 488.302 158.061 486.405 158.897C485.931 158.061 484.983 157.225 484.509 158.897C484.035 160.57 482.613 160.57 481.664 160.57C480.242 160.57 478.82 160.57 477.872 158.897C479.294 156.388 481.664 156.388 482.613 152.207C482.138 149.698 480.242 152.207 479.768 148.862C480.242 147.189 481.664 147.189 482.613 145.517C482.613 145.517 483.087 144.68 483.561 143.844C483.561 143.844 483.561 139.662 483.087 137.154C483.087 137.154 482.613 137.154 482.138 137.154C482.138 137.154 482.613 137.154 483.087 137.154C484.035 136.317 485.457 134.645 486.405 133.808C487.827 133.808 490.198 134.645 490.198 130.463C490.198 127.954 491.62 128.79 492.094 127.954C493.042 127.954 493.99 127.954 494.939 125.445C495.887 124.609 497.309 122.936 498.731 122.1C499.679 122.1 500.154 122.1 500.628 120.427C502.998 117.919 505.842 117.082 508.687 117.082C509.161 117.082 509.635 117.082 510.109 115.41V114.573C509.635 114.573 509.161 114.573 509.161 116.246C508.213 116.246 508.213 113.737 507.265 112.901C507.265 112.901 507.265 112.901 507.265 112.064C507.739 112.064 508.213 112.064 508.687 112.064C509.635 109.556 511.531 110.392 512.954 111.228C514.376 112.064 515.324 111.228 516.272 111.228C517.22 111.228 517.694 111.228 518.169 109.556C521.487 109.556 524.806 107.047 527.176 102.865C525.28 101.193 523.857 97.8473 522.909 94.5021C521.487 94.5021 520.539 94.5021 519.117 94.5021C518.643 92.8295 518.168 92.8295 517.22 93.6658C515.324 94.5021 513.428 96.1747 511.531 96.1747C510.109 96.1747 509.161 96.1747 507.739 97.8473C507.739 97.8473 507.739 97.011 507.739 96.1747C507.739 96.1747 507.739 95.3384 506.791 95.3384C504.42 96.1747 502.05 96.1747 499.679 96.1747C497.783 96.1747 495.887 96.1747 494.939 99.5199C494.465 99.5199 493.99 99.5199 493.99 100.356C491.146 101.193 488.302 97.011 485.931 101.193C480.716 98.6836 476.924 103.701 472.657 107.047C471.235 109.556 468.864 107.047 466.968 110.392C464.598 110.392 462.701 113.737 460.331 112.064V110.392C460.963 107.047 460.331 105.374 458.435 105.374C458.435 105.374 458.435 105.374 457.96 105.374C457.96 105.374 457.486 103.701 457.012 102.865H457.486C458.909 102.029 460.805 101.193 462.227 99.5199C464.123 99.5199 466.02 98.6836 467.916 97.8473C467.916 97.8473 467.916 102.029 469.812 99.5199C472.183 99.5199 473.131 97.8473 473.605 94.5021C473.605 94.5021 475.501 93.6658 476.45 92.8295H480.242C480.242 92.8295 478.82 94.5021 478.82 96.1747C479.768 96.1747 480.716 96.1747 481.19 95.3384C482.139 92.8295 481.19 92.8295 480.242 92.8295V91.1569C480.242 91.1569 480.716 91.1569 481.19 91.1569H484.035C484.035 91.1569 484.983 91.9932 485.457 92.8295C486.405 92.8295 485.931 90.3206 486.405 89.4843C486.405 89.4843 486.405 88.648 486.405 87.8117C487.353 87.8117 488.302 87.8117 488.776 86.1391C488.776 84.4665 488.776 82.7939 487.353 82.7939C486.405 82.7939 485.931 82.7939 485.931 81.1213C486.405 81.1213 486.879 79.4487 487.827 79.4487C489.724 78.6124 487.827 76.1035 487.827 75.2672C488.776 75.2672 490.198 75.2672 489.724 72.7583C489.724 70.2494 488.302 72.7583 487.353 72.7583C486.879 72.7583 486.405 72.7583 485.457 73.5946C484.509 73.5946 483.561 73.5946 482.613 73.5946C482.613 73.5946 482.138 73.5946 481.664 73.5946C481.664 71.922 480.716 71.0857 479.768 71.0857C479.768 71.0857 479.768 67.7405 478.346 68.5768C476.45 69.4131 477.398 71.922 477.872 73.5946C475.027 74.4309 476.45 71.0857 475.975 68.5768C475.975 65.2315 477.872 64.3952 479.294 63.5589C480.716 62.7226 482.613 66.0678 483.561 62.7226C485.457 62.7226 486.879 61.05 488.776 59.3774C490.198 57.7048 488.776 57.7048 488.302 56.0322C486.405 55.1959 484.983 57.7048 483.087 58.5411C482.139 58.5411 481.664 58.5411 481.19 59.3774C481.19 59.3774 480.716 59.3774 480.242 59.3774C478.346 61.8863 475.975 61.8863 473.605 63.5589C472.657 63.5589 471.709 64.3952 470.761 65.2315C467.442 65.2315 465.072 68.5768 462.227 70.2494C462.227 70.2494 461.753 71.922 460.805 71.922C460.331 71.922 459.857 71.922 459.383 71.922C458.909 72.7583 457.96 71.922 457.486 73.5946C457.486 73.5946 457.012 73.5946 456.538 73.5946H456.064C456.064 73.5946 455.59 73.5946 455.116 73.5946C455.116 73.5946 455.116 74.4309 455.116 75.2672C455.116 75.2672 455.116 75.2672 455.116 73.5946C454.168 72.7583 455.116 71.0857 455.116 70.2494C455.116 69.4131 455.116 68.5768 455.116 66.9042C455.116 66.9042 455.116 66.9042 455.59 66.9042C455.59 66.9042 456.064 66.9042 456.538 66.9042C457.012 66.9042 457.486 65.2315 458.435 66.0679C458.435 68.5768 458.909 69.4131 460.331 66.9042C460.331 66.9042 460.805 66.0679 461.279 65.2315C462.227 65.2315 462.701 65.2315 463.175 63.5589C463.175 57.7048 461.279 63.5589 460.331 61.8863C458.909 61.8863 459.383 61.05 459.383 59.3774C459.383 58.5411 457.96 59.3774 457.486 56.8685C460.805 55.1959 463.649 53.5233 466.968 51.8507C468.864 51.0144 470.761 49.3418 472.183 48.5055C472.657 47.6692 473.605 48.5055 474.079 46.8329C474.079 46.8329 474.079 45.1603 475.027 45.1603C475.027 45.1603 477.872 45.9966 478.82 43.4877C479.294 43.4877 480.716 43.4877 480.716 42.6514C480.716 40.9788 479.768 42.6514 478.82 42.6514C478.82 42.6514 476.45 42.6514 475.027 43.4877C475.027 43.4877 473.605 43.4877 473.131 43.4877C473.131 43.4877 472.657 43.4877 472.183 43.4877C472.183 43.4877 471.709 44.324 471.235 44.324C468.864 44.324 466.494 45.1603 464.123 46.8329C460.805 48.5055 457.96 51.8507 454.642 51.0144C454.642 51.0144 455.59 48.5055 454.642 48.5055C452.271 48.5055 449.901 45.9966 447.531 48.5055C447.531 48.5055 447.057 48.5055 446.583 48.5055C446.108 48.5055 445.16 48.5055 444.686 50.1781C443.264 51.0144 441.368 51.0144 439.945 53.5233C436.627 55.1959 433.308 56.0322 430.938 58.5411C427.619 61.05 424.301 63.5589 420.508 65.2315C420.508 64.3952 420.034 63.5589 419.56 61.8863C420.508 61.8863 421.93 61.8863 421.93 60.2137C422.879 54.3596 424.775 56.8685 427.145 56.8685C427.145 56.8685 427.145 56.0322 427.145 55.1959C427.145 55.1959 427.145 54.3596 427.145 53.5233C427.145 53.5233 428.093 51.8507 428.093 50.1781H429.042C429.042 50.1781 429.042 55.1959 430.938 53.5233C430.938 53.5233 431.412 52.687 431.886 51.8507C431.886 51.8507 435.205 51.8507 434.731 46.8329C436.153 48.5055 437.101 48.5055 437.101 45.1603C437.101 44.324 437.101 43.4877 436.627 41.8151C437.575 41.8151 437.575 40.1425 437.575 38.4699C437.575 38.4699 440.42 36.7973 440.42 33.4521C440.894 33.4521 441.368 31.7795 441.368 30.1069C441.368 30.1069 441.842 30.1069 442.316 30.1069C442.316 30.1069 442.79 30.9432 443.264 31.7795C443.738 31.7795 444.212 31.7795 445.16 31.7795C445.16 31.7795 445.634 30.9432 446.108 30.1069C446.108 30.1069 446.583 30.1069 447.057 30.1069C447.057 30.1069 450.375 30.1069 451.323 25.9254C448.953 25.9254 447.531 27.598 446.108 27.598C446.108 27.598 446.108 27.598 446.108 28.4343C446.108 28.4343 445.634 28.4343 445.16 28.4343H444.212C444.212 28.4343 443.738 27.598 443.264 26.7617V23.4165C443.264 23.4165 443.738 22.5801 444.212 21.7438C444.686 21.7438 445.634 21.7438 446.583 21.7438C446.583 21.7438 446.583 21.7438 447.057 21.7438C447.057 21.7438 448.005 20.9075 448.005 20.0712C448.005 20.0712 449.901 20.0712 450.849 18.3986C450.849 18.3986 451.323 18.3986 451.797 18.3986C452.746 18.3986 453.22 18.3986 453.694 16.726C453.694 16.726 453.694 15.8897 453.694 15.0534C453.694 15.0534 453.694 13.3808 453.694 12.5445C453.694 12.5445 453.694 10.8719 453.22 10.8719C452.272 10.8719 452.271 10.8719 452.271 12.5445C452.271 12.5445 452.271 14.2171 452.271 15.0534C452.271 15.0534 451.797 15.0534 451.323 15.0534C448.953 12.5445 446.583 15.0534 444.686 16.726C444.212 16.726 443.738 16.726 442.79 16.726C442.79 16.726 442.316 17.5623 441.842 18.3986C441.842 18.3986 441.368 18.3986 440.894 18.3986C440.894 18.3986 440.894 17.5623 440.894 16.726C440.894 16.726 441.842 15.0534 442.79 15.0534C442.79 15.0534 443.264 14.2171 443.738 13.3808C443.738 13.3808 444.212 12.5445 444.686 11.7082H445.634C445.634 11.7082 445.634 11.7082 446.108 11.7082C446.108 11.7082 448.005 11.7082 448.953 11.7082C449.427 11.7082 448.953 10.8719 448.953 10.0356C448.953 9.19932 449.901 8.36302 449.427 6.69041C449.427 6.69041 449.901 5.85411 450.375 5.01781C450.375 5.01781 454.642 4.18151 456.064 1.6726C456.064 1.6726 456.064 0.836302 456.064 0C454.168 0.836302 452.272 2.50891 450.849 3.34521C449.901 3.34521 449.427 3.34521 448.953 5.01781C447.057 5.01781 445.16 6.69041 443.738 6.69041C442.79 6.69041 442.316 6.69042 441.842 7.52672C441.842 9.19932 441.842 8.36302 440.894 7.52672C439.945 7.52672 439.471 7.52672 438.997 9.19932C438.523 9.19932 438.049 9.19932 437.101 9.19932C437.101 9.19932 437.101 10.0356 437.101 10.8719C437.101 10.8719 437.101 10.0356 437.101 9.19932C437.101 9.19932 437.101 8.36302 437.101 7.52672C437.101 7.52672 437.575 6.69042 438.049 5.85411C438.049 5.85411 438.049 5.01781 438.049 4.18151C436.627 4.18151 434.731 4.18151 433.308 5.01781C430.938 6.69042 428.093 6.69042 425.723 9.19932C424.301 9.19932 423.353 5.85411 421.93 9.19932C418.612 9.19932 415.767 10.8719 412.923 12.5445H411.975C411.975 12.5445 409.604 14.2171 408.182 15.8897C407.234 15.8897 406.76 15.8897 406.286 17.5623C405.812 17.5623 404.864 17.5623 404.39 19.2349C401.545 20.9075 399.175 22.5802 397.278 25.9254C392.538 27.598 388.271 30.1069 383.056 29.2706C383.056 29.2706 382.108 29.2706 382.108 30.1069C382.108 30.1069 381.634 30.1069 381.16 30.1069C381.16 30.1069 380.686 30.1069 380.211 30.1069C380.211 27.598 379.737 26.7617 378.315 28.4343C377.841 28.4343 377.367 28.4343 376.419 28.4343V30.1069C376.419 30.1069 376.419 30.1069 376.419 28.4343C374.997 28.4343 374.048 30.1069 372.626 30.1069C371.678 30.1069 370.73 30.1069 369.308 30.1069C366.463 30.9432 363.619 32.6158 360.3 33.4521C361.248 30.9432 363.145 32.6158 364.567 29.2706C361.722 29.2706 359.352 28.4343 357.93 32.6158C356.982 32.6158 355.559 32.6158 354.137 32.6158C350.819 34.2884 347.5 35.1247 343.707 34.2884C343.233 34.2884 342.285 34.2884 341.811 32.6158C342.285 32.6158 342.759 32.6158 343.233 32.6158C344.181 32.6158 344.656 32.6158 345.604 30.9432C346.078 30.9432 347.026 30.9432 347.026 29.2706C347.026 29.2706 347.974 25.0891 347.026 25.0891C345.604 25.0891 346.552 27.598 346.552 28.4343C346.552 28.4343 346.078 28.4343 345.604 28.4343C345.604 28.4343 343.233 28.4343 342.285 28.4343H341.337C341.337 28.4343 340.863 27.598 340.389 26.7617C339.915 26.7617 338.967 26.7617 338.967 28.4343C338.018 28.4343 336.596 28.4343 335.174 28.4343C334.226 28.4343 332.804 28.4343 332.329 26.7617C331.855 25.9254 330.907 26.7617 330.433 25.0891C329.959 25.0891 329.011 25.9254 328.537 26.7617C327.589 26.7617 326.641 26.7617 326.166 26.7617C325.218 26.7617 324.744 26.7617 324.27 27.598C324.27 27.598 323.796 27.598 323.322 27.598V24.2528C323.322 24.2528 326.641 24.2528 328.063 22.5802C328.063 22.5802 328.063 22.5802 328.537 22.5802C328.537 20.9075 330.433 22.5802 330.433 19.2349C330.433 16.726 329.011 19.2349 328.063 19.2349C327.589 19.2349 327.115 20.0712 326.641 20.9075C325.218 20.9075 323.322 20.9075 322.374 20.9075C317.159 20.9075 312.418 20.9075 307.677 23.4165C306.255 23.4165 304.833 23.4165 303.885 25.0891C303.885 25.0891 302.937 25.9254 302.937 26.7617C302.937 26.7617 303.885 26.7617 304.359 26.7617C304.359 26.7617 303.411 25.9254 302.937 26.7617C299.144 24.2528 296.299 26.7617 292.981 30.1069C292.981 30.1069 292.507 30.1069 292.033 30.1069C287.292 30.9432 283.025 35.961 278.284 36.7973C274.966 36.7973 272.121 39.3062 269.277 40.9788C261.692 47.6692 253.632 50.1781 246.047 56.8685C243.203 59.3774 240.358 61.05 237.514 65.2315C237.514 65.2315 235.617 65.2315 235.617 66.9042C234.669 66.9042 233.721 66.9041 232.773 68.5768C232.773 68.5768 231.351 69.4131 230.877 70.2494C230.877 70.2494 230.402 70.2494 229.928 71.0857C228.506 71.922 226.61 73.5946 225.188 74.4309C224.239 74.4309 223.291 75.2672 221.869 74.4309C219.973 71.922 217.602 71.922 214.758 73.5946C213.336 73.5946 212.387 74.4309 210.965 75.2672C210.965 75.2672 210.491 75.2672 210.017 75.2672C210.017 75.2672 210.017 75.2672 210.017 73.5946C210.017 73.5946 213.336 73.5946 213.81 69.4131C212.387 67.7405 210.965 69.4131 209.543 69.4131C208.595 69.4131 207.173 71.0857 206.224 69.4131C207.173 67.7405 208.595 66.9042 210.017 66.0679C213.81 66.0679 210.017 61.05 211.439 60.2137C211.439 57.7048 210.017 60.2137 209.543 60.2137C209.543 60.2137 208.595 60.2137 208.121 60.2137C208.121 58.5411 208.121 57.7048 207.173 56.8685C205.75 56.8685 205.276 54.3596 204.328 53.5233C203.854 53.5233 203.38 53.5233 202.906 53.5233C202.906 51.8507 204.802 51.8507 204.328 48.5055C201.958 49.3418 200.061 50.1781 198.639 53.5233C195.321 53.5233 192.95 56.8685 190.106 58.5411C189.158 57.7048 188.683 58.5411 187.735 58.5411C186.787 58.5411 186.313 58.5411 185.365 58.5411C185.365 58.5411 184.891 58.5411 184.417 58.5411C184.417 58.5411 183.943 59.3774 183.469 60.2137C183.469 60.2137 182.995 60.2137 182.52 60.2137C182.046 61.05 181.098 60.2137 180.624 61.8863C180.624 61.8863 180.15 61.8863 179.676 61.8863C179.676 61.8863 179.202 62.7226 178.728 63.5589C178.728 63.5589 174.461 66.9041 172.091 68.5768C167.35 72.7583 162.135 76.9398 157.868 82.7939C157.868 82.7939 157.868 83.6302 157.868 84.4665C157.868 84.4665 157.868 83.6302 157.868 82.7939C154.55 82.7939 152.653 86.9754 150.283 89.4843C144.594 94.5021 138.905 99.5199 133.69 105.374C129.424 110.392 124.683 113.737 121.364 120.427C116.149 123.773 111.883 130.463 107.142 135.481C105.246 137.154 103.823 138.826 102.401 142.171C102.401 142.171 101.927 142.171 101.453 142.171C92.9195 150.534 85.3342 163.079 77.2749 173.114C76.3267 173.951 75.8527 176.46 75.3786 177.296C72.06 182.314 68.2674 184.823 65.897 192.349C63.0525 194.022 61.1562 197.367 59.734 200.712C59.734 200.712 58.3117 202.385 57.8377 204.058C57.8377 204.058 54.045 211.584 51.2005 214.093C49.3042 216.602 47.4079 218.275 46.4598 222.456C41.2449 229.983 36.5041 238.346 34.6078 250.054C32.2374 256.745 28.9188 262.599 26.0744 268.453C26.0744 268.453 25.6003 268.453 25.6003 270.126C25.6003 270.126 25.1262 270.962 25.1262 271.798C22.7558 274.307 22.2817 278.489 21.3336 281.834L21.8076 283.506C24.178 286.015 25.1262 282.67 26.5484 280.161C27.9707 280.161 29.3929 278.489 30.3411 276.816C32.7115 270.962 36.5041 268.453 38.8745 263.435C41.2449 259.254 44.5634 258.417 46.4598 252.563C46.4598 252.563 46.9338 252.563 46.9338 251.727C46.9338 251.727 47.4079 251.727 47.882 250.891C47.882 250.891 48.3561 250.891 48.8301 250.891C48.8301 250.891 49.3042 250.891 49.3042 250.054C49.3042 250.054 52.6228 245.036 54.045 243.364C54.9932 243.364 54.9932 245.036 54.9932 246.709C53.0969 251.727 50.7265 256.745 48.8301 261.762C45.9857 269.289 43.1412 276.816 41.2449 286.015C41.2449 286.015 41.2449 286.852 41.2449 287.688C41.2449 287.688 41.2449 288.524 41.2449 289.36C40.2967 291.869 40.2967 295.215 39.3486 296.887C39.3486 296.887 38.8745 296.887 38.4004 296.887C37.9263 296.887 37.9263 298.56 37.4522 299.396C34.6078 307.759 31.7633 316.958 29.3929 326.158C27.9707 332.012 25.6003 336.193 23.2299 339.539C22.2817 339.539 22.2817 340.375 22.2817 342.047C22.2817 342.047 21.8076 343.72 21.3336 344.556C20.8595 344.556 19.9113 345.393 19.4372 346.229C19.4372 346.229 19.4372 347.065 19.4372 347.902V347.065C18.9632 347.065 18.4891 347.065 18.4891 348.738C18.4891 349.574 18.4891 351.247 18.4891 352.083C18.4891 352.083 18.015 352.083 17.5409 352.083C17.5409 352.083 17.0668 352.919 16.5928 353.756V355.428C16.5928 355.428 13.2742 361.282 11.852 363.791C11.852 363.791 11.3779 364.628 10.9038 364.628H14.6965C14.6965 364.628 13.2742 368.809 15.6446 369.645C15.6446 369.645 15.6446 371.318 15.6446 372.154C15.6446 372.991 15.6446 374.663 15.6446 375.5V377.172C11.3779 386.371 9.95566 396.407 6.16303 405.606C5.68895 407.279 5.21487 408.115 5.68895 409.788C5.68895 409.788 4.74079 417.315 3.31855 419.824C3.31855 420.66 3.31855 422.332 3.31855 423.169C3.31855 423.169 3.31855 424.005 2.84447 424.841H2.3704C2.3704 424.841 2.3704 426.514 2.3704 427.35C2.3704 427.35 2.3704 429.023 2.3704 429.859H1.89632C1.89632 429.859 2.3704 432.368 2.84447 433.204V434.877C2.84447 434.877 3.47658 435.992 4.74079 438.222C4.74079 443.24 3.31855 446.585 2.84447 451.603C3.31855 454.112 3.79263 455.785 3.79263 458.293C3.79263 460.802 2.3704 462.475 3.79263 464.984C3.79263 464.984 3.79263 466.656 3.79263 468.329C3.79263 469.165 3.79263 470.838 3.79263 471.674C3.79263 471.674 3.31855 472.511 2.84447 473.347C2.84447 473.347 2.3704 473.347 1.89632 474.183C1.89632 475.019 1.89632 475.856 2.84447 476.692C2.84447 478.365 2.84447 480.037 2.84447 482.546C2.84447 487.564 3.79263 485.891 5.21487 484.219C5.21487 485.055 5.21487 485.891 5.21487 486.728C3.79263 489.237 4.74079 492.582 3.79263 495.091C3.31855 495.091 2.84447 496.763 2.3704 498.436C2.3704 500.109 2.3704 500.945 1.89632 501.781C1.42224 504.29 0.948158 506.799 1.42224 510.144C1.42224 510.98 1.42224 511.817 1.42224 512.653C0.474079 514.326 0 516.835 0 518.507C1.42224 518.507 1.89632 516.835 2.84447 515.998C3.79263 515.998 4.26671 515.998 4.74079 513.489V520.18ZM381.16 621.372C381.16 621.372 380.211 620.536 379.737 619.7C380.211 619.7 380.686 621.372 381.16 621.372ZM93.8677 527.707C93.8677 527.707 93.8677 527.707 93.8677 528.543V527.707ZM240.358 78.6124C240.358 78.6124 239.884 78.6124 239.41 78.6124C239.41 78.6124 239.884 78.6124 240.358 78.6124ZM463.649 81.9576C463.649 81.9576 461.753 81.9576 460.805 81.9576C460.805 81.9576 462.701 81.9576 463.649 81.9576ZM487.353 116.246C487.353 116.246 487.353 116.246 487.353 115.41V116.246ZM639.533 294.378C639.533 294.378 639.533 293.542 639.533 292.706C639.533 292.706 639.533 293.542 639.533 294.378ZM339.915 605.483C339.915 605.483 339.441 607.991 338.967 607.155C338.967 607.155 338.967 607.155 338.493 607.155C338.967 607.155 339.915 606.319 339.915 605.483ZM98.1344 521.016C98.1344 521.016 97.6603 521.016 97.1862 521.016C97.1862 521.016 97.6603 521.016 98.1344 521.016ZM561.784 266.78C561.784 266.78 561.784 266.78 561.784 267.617C561.784 267.617 561.31 267.617 560.836 267.617C560.836 267.617 560.836 266.78 561.31 265.944L561.784 266.78ZM582.643 297.723C582.643 297.723 582.643 297.723 582.169 298.56C582.169 298.56 582.169 297.723 582.643 296.887V297.723ZM581.221 298.56H581.695C581.695 298.56 581.695 299.396 581.221 298.56ZM569.369 283.506C569.369 283.506 569.369 283.506 569.369 284.343V283.506ZM523.857 522.689C523.857 522.689 523.857 522.689 523.857 521.852C523.857 521.852 523.857 521.852 523.857 522.689ZM167.824 146.353C167.824 146.353 167.824 145.517 167.824 144.68C167.824 144.68 167.824 145.517 167.824 146.353ZM182.995 122.1L182.046 123.773C182.046 123.773 182.995 123.773 182.995 122.1ZM587.384 389.717C587.384 389.717 588.332 386.372 587.384 384.699C587.384 384.699 587.384 388.044 587.384 389.717ZM326.166 444.076C326.166 444.076 326.641 444.076 326.641 443.24C326.641 443.24 326.641 444.076 326.641 444.913L326.166 444.076ZM245.099 485.891C245.099 485.891 244.625 486.728 244.151 486.728C244.151 486.728 244.625 485.891 245.099 484.219C245.099 484.219 245.099 484.219 245.099 485.055V485.891ZM127.527 452.439C127.527 452.439 127.527 452.439 128.001 452.439C128.001 452.439 128.001 452.439 128.001 453.276C128.001 453.276 128.001 453.276 128.001 452.439H127.527ZM585.488 392.226C585.488 392.226 585.488 392.226 585.962 392.226C585.962 392.226 585.962 392.226 585.488 392.226ZM519.117 498.436V495.927C519.117 497.6 519.117 498.436 518.643 498.436H519.117ZM316.685 435.713C316.685 435.713 316.685 435.713 316.685 434.877C316.685 434.877 316.685 434.877 316.685 435.713ZM258.373 181.477C258.373 181.477 258.373 181.477 258.847 180.641C258.847 180.641 258.847 180.641 258.373 180.641V181.477ZM511.531 301.905C511.531 301.905 511.057 301.905 510.583 301.905C510.583 301.905 510.583 301.905 511.057 301.069L511.531 301.905ZM270.225 440.731C270.225 440.731 270.225 440.731 269.751 440.731C269.751 440.731 269.751 440.731 270.225 440.731ZM534.287 422.332C534.287 422.332 534.287 422.332 534.761 422.332H534.287ZM556.095 409.788C556.095 409.788 556.095 409.788 556.095 408.952C556.095 408.952 556.095 408.952 555.621 408.952L556.095 409.788ZM243.203 257.581C243.203 257.581 243.203 257.581 243.203 258.417V257.581ZM363.619 363.791C363.619 363.791 364.567 364.628 364.567 365.464C364.567 364.628 363.619 363.791 363.145 363.791H363.619ZM107.616 301.069C107.616 301.069 107.616 301.905 107.142 301.905C107.142 301.069 106.668 300.232 106.194 299.396C106.668 299.396 107.142 300.232 107.616 300.232V301.069ZM181.572 240.019C181.572 240.019 181.572 240.855 181.572 241.691C181.572 241.691 181.572 240.855 181.572 240.019ZM509.161 440.731C509.161 440.731 509.161 440.731 509.161 441.567V440.731ZM427.619 452.439C427.619 452.439 427.145 452.439 426.671 452.439C426.671 452.439 426.671 451.603 427.145 450.767C427.145 450.767 427.145 451.603 427.145 452.439H427.619ZM190.106 312.777H189.632C189.632 312.777 189.632 312.777 190.106 312.777ZM180.15 315.286C180.15 315.286 180.15 315.286 179.676 315.286C179.676 315.286 180.15 314.45 180.624 313.613C180.624 313.613 180.624 314.45 180.624 315.286H180.15ZM223.765 320.304C223.765 320.304 224.714 320.304 225.188 320.304C224.714 320.304 224.239 320.304 223.765 320.304ZM411.501 253.399C411.501 252.563 411.027 250.891 410.553 250.054C410.553 250.054 411.027 251.727 411.501 252.563V253.399ZM377.367 338.702C377.367 338.702 376.419 337.03 375.945 336.193C375.945 334.521 376.893 334.521 377.367 334.521C377.367 334.521 377.367 334.521 377.841 334.521C377.841 335.357 377.367 337.03 377.367 338.702ZM201.958 359.61C201.958 359.61 201.958 359.61 201.958 358.774C201.958 358.774 201.958 359.61 201.958 360.446V359.61ZM282.551 229.983C282.551 229.983 283.499 231.656 283.973 231.656C283.973 231.656 283.025 229.983 282.551 229.983ZM379.737 326.158C379.737 326.158 379.737 325.321 379.737 324.485V325.321V326.158ZM282.077 243.364C282.077 243.364 282.077 243.364 282.551 243.364C282.551 243.364 282.551 244.2 282.551 245.036C282.551 245.036 282.551 245.036 282.551 243.364H282.077ZM276.388 311.941C276.388 311.941 276.388 311.104 276.388 310.268C276.388 310.268 276.862 310.268 276.388 311.941ZM280.655 296.887V296.051C280.655 296.051 280.655 296.051 280.655 296.887ZM285.396 332.012C285.396 332.012 285.396 332.012 284.922 332.848C284.922 332.848 284.922 332.848 285.396 332.012ZM292.507 325.321C292.507 325.321 292.507 325.321 292.981 325.321H292.507ZM371.204 250.891C371.204 250.891 371.204 250.891 371.204 250.054C371.204 248.382 372.152 248.382 373.1 248.382C372.152 248.382 371.678 249.218 371.204 250.891ZM331.855 265.108C331.855 265.108 331.855 265.108 332.329 265.108C332.329 265.108 332.329 265.108 331.855 265.108ZM315.263 311.104C315.263 311.104 315.263 311.104 315.737 311.104C315.737 311.104 315.263 311.104 314.789 311.941L315.263 311.104ZM374.997 243.364C374.048 243.364 373.574 243.364 373.1 243.364C373.574 243.364 374.523 244.2 374.997 243.364ZM260.269 362.119C260.269 362.119 260.269 362.119 260.744 362.119H260.269ZM410.553 402.261L410.078 403.098C410.078 403.098 410.078 402.261 410.553 401.425V402.261ZM456.538 435.713H456.064C456.064 436.55 456.538 435.713 457.012 435.713H456.538ZM462.701 419.824C462.701 419.824 462.701 422.332 462.701 423.169C462.701 422.332 462.701 420.66 462.701 419.824ZM391.589 286.852C391.589 286.852 391.115 285.179 390.641 284.343H391.115C391.115 285.179 391.115 286.015 391.115 286.852H391.589ZM377.841 257.581C377.841 257.581 377.841 257.581 378.315 257.581C378.315 257.581 378.315 257.581 377.841 257.581ZM372.152 315.286C372.152 315.286 372.152 316.122 372.152 316.958C372.152 316.958 372.152 316.122 372.152 315.286ZM470.761 360.446C470.761 360.446 470.761 360.446 471.235 360.446C471.235 360.446 470.761 360.446 470.761 361.282V359.61V360.446ZM406.286 276.816C406.286 276.816 406.286 277.652 406.286 278.489C405.812 278.489 405.338 276.816 404.864 276.816C405.338 276.816 406.286 276.816 406.76 276.816H406.286ZM306.729 216.602C306.729 216.602 306.729 216.602 307.203 216.602C307.203 216.602 307.203 216.602 306.729 216.602ZM312.892 336.193C312.892 336.193 312.892 337.03 311.944 337.03C311.944 337.03 312.892 337.03 313.366 335.357L312.892 336.193ZM409.13 449.094C409.13 449.094 409.13 449.094 409.13 448.258V449.094ZM453.22 474.183C453.22 474.183 453.22 477.528 453.22 479.201V474.183ZM447.057 338.702C447.057 338.702 447.057 338.702 446.583 338.702H447.057ZM242.729 390.553C242.729 390.553 242.254 391.389 241.78 391.389C241.78 391.389 242.254 391.389 242.729 390.553ZM358.404 354.592C358.404 354.592 358.404 354.592 358.878 354.592C358.878 354.592 358.404 354.592 357.93 354.592H358.404ZM389.219 360.446H388.271C388.271 360.446 388.745 360.446 389.219 360.446ZM474.553 462.475C474.553 462.475 473.605 462.475 473.131 464.148C473.131 464.148 474.079 463.311 474.553 462.475ZM351.293 206.567C351.293 206.567 350.344 209.075 349.87 209.075C347.5 209.075 347.026 212.421 346.078 214.93C346.078 214.93 346.078 215.766 345.604 216.602C345.13 216.602 344.656 218.275 344.181 218.275C347.5 214.93 349.87 210.748 351.767 205.73L351.293 206.567ZM177.306 296.887C177.306 296.887 178.728 294.378 179.676 293.542C178.728 294.378 177.78 295.215 177.306 296.887ZM157.394 314.45L157.868 313.613C157.868 313.613 157.394 314.45 157.394 315.286V314.45ZM134.164 379.681C134.164 379.681 134.164 379.681 134.164 380.517C134.164 380.517 134.164 380.517 134.164 379.681ZM139.853 370.482C139.853 370.482 139.379 370.482 138.905 370.482C138.905 370.482 139.379 370.482 139.853 370.482ZM410.078 506.799C410.078 506.799 410.078 506.799 410.078 507.635C410.078 507.635 410.078 507.635 409.604 507.635L410.078 506.799ZM377.841 189.841C377.841 189.841 378.315 189.841 378.789 189.841C378.789 189.841 378.315 189.841 377.841 190.677V189.841ZM318.581 190.677C318.581 190.677 319.529 190.677 319.529 189.841C319.529 191.513 318.581 191.513 318.581 190.677ZM352.715 377.172C352.715 377.172 352.715 377.172 352.241 377.172C352.241 377.172 352.241 377.172 352.715 377.172ZM363.145 352.083C363.145 352.083 365.041 352.083 365.515 350.41C365.515 351.247 365.515 351.247 365.989 352.083C365.041 352.083 364.093 352.083 363.145 352.083ZM385.426 365.464C385.426 365.464 384.952 366.3 384.478 367.137C384.478 366.3 384.478 365.464 385.426 365.464ZM406.76 470.002C406.76 470.002 406.76 470.838 406.76 471.674C406.76 471.674 406.76 471.674 406.76 470.838V470.002ZM452.746 501.781C452.746 501.781 452.746 501.781 452.271 502.617C452.271 502.617 452.746 502.617 452.746 501.781ZM484.509 502.617C484.509 502.617 484.509 504.29 484.983 505.126C484.983 504.29 484.983 503.454 484.035 502.617H484.509ZM513.428 443.24C513.428 443.24 512.954 443.24 512.48 443.24H513.428ZM486.879 314.45C486.879 314.45 486.879 314.45 486.405 314.45C486.405 314.45 486.405 314.45 486.405 313.613C486.405 313.613 486.405 313.613 486.405 314.45H486.879ZM373.1 173.951C372.152 176.46 371.678 178.132 370.256 178.969C371.204 177.296 372.626 176.46 373.1 173.951C373.1 173.951 373.1 173.951 373.574 173.951H373.1ZM329.011 180.641H327.589C327.589 180.641 328.537 180.641 329.011 180.641ZM274.966 217.438C274.966 217.438 272.121 219.111 271.173 219.947C272.121 218.275 273.544 217.438 274.966 217.438ZM219.973 420.66C219.973 422.332 219.025 424.005 219.025 424.841C219.025 424.841 219.025 420.66 219.499 420.66H219.973ZM402.493 475.856C402.493 475.856 402.493 475.856 402.019 475.856C402.019 475.856 402.019 475.856 402.493 475.856ZM416.716 519.343C416.716 519.343 415.767 519.343 415.293 519.343C415.293 519.343 415.767 520.18 416.716 519.343ZM446.583 483.383C446.583 483.383 446.583 483.382 446.583 484.219V483.383ZM485.931 502.617C485.931 502.617 485.931 502.617 486.405 502.617C486.405 502.617 486.405 502.617 485.931 502.617ZM521.961 474.183C521.961 474.183 521.961 474.183 522.435 474.183C522.435 474.183 522.435 474.183 521.961 474.183ZM524.332 470.838C524.332 470.838 524.332 470.838 524.332 471.674C524.332 471.674 524.332 471.674 524.332 470.838ZM421.456 221.62C421.456 221.62 421.456 221.62 421.456 220.784V221.62ZM167.824 252.563C167.824 252.563 167.824 252.563 168.298 252.563H167.824ZM217.602 424.841C217.602 424.841 217.602 424.841 218.076 424.841C218.076 424.841 217.602 424.841 217.128 424.841H217.602ZM253.158 442.404C253.158 442.404 253.158 443.24 253.158 444.076C253.158 443.24 252.684 441.567 251.736 441.567C252.21 441.567 253.158 441.567 253.158 442.404ZM367.411 362.119C367.411 362.119 367.885 362.119 368.36 362.119C368.36 362.119 367.885 362.119 367.411 362.955V362.119ZM391.589 431.532C391.589 430.695 390.641 429.859 390.167 429.859C390.641 429.859 391.115 429.859 391.589 431.532ZM534.761 420.66C534.761 420.66 534.761 420.66 534.761 421.496V420.66ZM474.553 310.268C474.553 310.268 475.027 308.595 475.501 308.595C475.501 309.432 475.501 310.268 474.553 310.268ZM421.93 199.876C421.93 199.876 421.93 199.876 421.93 198.204V199.876ZM415.293 198.204C415.293 198.204 416.241 197.367 416.716 195.695C416.716 196.531 415.767 197.367 415.293 198.204ZM280.655 187.332C280.655 187.332 280.655 189.004 280.655 189.841C280.655 189.004 281.603 188.168 281.603 187.332H280.655ZM274.966 199.876C274.966 199.876 275.44 199.876 275.914 199.876C275.914 199.876 275.44 199.876 274.966 199.876ZM113.305 239.182C113.305 239.182 113.305 238.346 113.779 237.51C113.779 237.51 113.305 237.51 112.831 237.51L113.305 239.182ZM111.883 389.717C111.883 389.717 111.883 389.717 111.883 390.553C111.883 390.553 111.883 390.553 111.883 389.717ZM176.357 419.824C176.357 419.824 176.357 421.496 176.357 422.332C175.883 421.496 176.357 420.66 176.357 419.824ZM194.847 426.514C194.847 426.514 194.847 426.514 194.372 426.514C194.372 426.514 194.372 425.678 194.372 424.841C194.372 425.678 195.321 426.514 195.795 427.35L194.847 426.514ZM398.701 488.4C398.701 488.4 397.752 489.237 396.804 490.073C396.804 488.4 397.752 487.564 398.701 488.4ZM431.412 500.945C431.412 500.945 431.412 500.945 430.938 502.617C430.938 502.617 430.938 502.617 430.938 501.781L431.412 500.945ZM580.273 421.496C580.273 421.496 580.273 421.496 580.747 421.496C580.747 421.496 580.747 421.496 580.273 421.496ZM584.066 418.151C584.066 418.151 584.066 417.315 584.066 416.478C584.066 416.478 584.066 417.315 584.066 418.151ZM567.473 366.3C567.473 366.3 566.999 366.3 566.525 366.3C566.525 366.3 566.525 367.137 567.473 366.3ZM505.368 280.997C505.368 280.997 506.791 278.489 506.791 276.816C506.791 277.652 507.739 277.652 507.739 278.489C506.791 278.489 505.842 280.161 504.894 280.997H505.368ZM481.19 286.852C481.19 286.852 482.138 288.524 482.138 289.36C481.664 289.36 481.19 288.524 480.716 287.688L481.19 286.852ZM484.983 292.706C484.983 292.706 484.035 294.378 483.087 295.215C483.561 295.215 484.509 294.378 484.983 292.706ZM428.568 222.456C428.568 222.456 429.99 222.456 429.516 219.947C429.516 219.947 429.042 222.456 428.568 222.456ZM427.145 189.841C427.145 189.841 427.145 189.841 427.619 189.841H427.145ZM221.395 264.271C221.395 264.271 221.395 262.599 221.869 262.599C221.869 262.599 221.869 264.271 221.395 264.271ZM228.506 426.514C228.506 426.514 228.506 425.678 228.506 424.005C228.506 424.005 228.98 423.169 229.454 423.169C229.928 423.169 230.402 422.332 231.351 421.496C230.402 423.169 229.928 424.841 228.98 426.514H228.506ZM326.641 426.514V427.35C326.641 427.35 326.641 427.35 326.641 426.514ZM339.441 403.098C339.441 403.098 339.915 404.77 339.441 405.606C339.441 405.606 339.441 405.606 339.441 406.443C339.441 405.606 339.441 403.934 339.441 403.098ZM553.724 443.24C553.724 443.24 553.724 443.24 553.724 442.404V443.24ZM563.68 454.112C563.68 454.112 563.68 454.112 563.68 454.948V454.112ZM564.628 468.329C564.628 468.329 563.68 468.329 563.68 466.656C563.68 466.656 564.154 467.493 564.628 468.329ZM370.73 146.353C370.73 146.353 370.73 146.353 370.256 146.353C370.73 146.353 370.73 145.517 371.204 144.68V145.517L370.73 146.353ZM237.514 249.218C237.514 249.218 237.514 249.218 237.988 249.218H237.514ZM125.157 223.293C125.157 223.293 125.631 223.293 126.105 221.62C126.105 221.62 125.631 221.62 125.157 223.293ZM361.722 436.55C361.722 436.55 363.145 437.386 364.093 437.386C363.619 436.55 362.671 436.55 361.722 435.713V436.55ZM383.056 444.913C383.056 444.913 383.53 444.076 384.004 443.24C384.004 443.24 383.53 443.24 383.056 444.913ZM553.25 485.891C553.25 485.891 553.25 487.564 554.199 487.564C554.199 487.564 553.25 486.728 553.25 485.891ZM615.355 408.115C615.355 408.115 616.303 406.443 616.777 405.606C616.303 405.606 615.829 407.279 615.355 408.115ZM473.131 273.471H472.657C472.657 273.471 472.657 273.471 473.131 273.471ZM448.005 214.93C448.005 214.93 448.005 214.93 447.531 214.93C447.531 214.93 448.005 214.93 448.479 214.093C448.479 214.093 448.479 214.093 448.005 214.93ZM289.662 143.844C289.662 143.844 290.136 143.008 290.611 143.008C290.611 143.008 289.662 143.844 289.188 144.68L289.662 143.844ZM90.5491 254.236C90.5491 254.236 90.5491 255.908 90.5491 256.745C90.075 256.745 89.601 256.745 89.1269 256.745C89.601 256.745 90.5491 256.745 90.5491 254.236ZM52.6228 388.88V390.553C52.6228 390.553 52.6228 389.717 52.6228 388.88ZM130.846 480.037C130.846 480.037 130.846 481.71 130.372 481.71C130.372 481.71 130.372 480.874 130.846 480.037ZM301.04 453.276C302.463 453.276 304.359 453.276 305.781 451.603C303.885 449.93 302.462 451.603 300.566 452.439L301.04 453.276ZM363.145 449.93C363.145 449.93 363.145 449.93 363.145 449.094V449.93ZM391.115 565.34C391.115 565.34 391.115 565.34 391.115 566.176C391.115 566.176 391.115 566.176 391.115 565.34ZM549.932 382.19C549.932 382.19 549.932 382.19 549.932 381.354C549.932 381.354 549.932 381.354 549.932 382.19ZM190.58 124.609C190.58 124.609 190.58 124.609 190.58 125.445V124.609ZM165.454 138.826C165.454 138.826 165.454 138.826 164.98 138.826C164.98 138.826 164.98 138.826 165.454 138.826ZM250.788 515.998C250.788 515.998 251.736 515.998 252.684 516.835C252.21 516.835 251.736 515.998 250.788 515.998ZM373.574 426.514C373.574 426.514 373.1 425.678 372.626 425.678C372.626 425.678 373.574 425.678 373.574 426.514ZM493.516 538.578C493.516 538.578 493.516 538.578 493.042 538.578H493.516ZM531.917 260.09C531.917 260.09 531.917 260.09 531.917 261.762C531.917 261.762 530.969 261.762 530.495 261.762C530.495 261.762 530.969 261.762 531.443 260.926L531.917 260.09ZM379.263 71.922C379.263 71.922 379.263 72.7583 379.263 73.5946C379.263 73.5946 379.263 72.7583 379.263 71.922ZM281.603 126.282C281.603 126.282 281.603 126.282 282.077 126.282H281.603ZM247.469 168.097C247.469 168.097 247.469 168.097 246.995 168.097H247.469ZM190.106 103.701C190.106 103.701 190.106 103.701 190.106 102.865C190.106 102.865 190.106 102.865 190.106 103.701ZM127.053 188.168C127.053 188.168 127.053 188.168 127.053 189.004C127.053 189.004 127.053 189.004 127.053 188.168ZM58.7858 334.521C58.7858 334.521 58.3117 330.339 56.8895 329.503C56.8895 329.503 57.8377 332.848 58.7858 334.521ZM46.9338 436.55C46.9338 436.55 48.3561 434.877 48.8301 434.041C48.8301 434.041 48.3561 434.041 48.3561 435.713C48.3561 436.55 47.4079 436.55 46.9338 437.386V436.55ZM128.95 490.909C128.95 490.909 128.95 490.909 128.95 491.746V490.909ZM287.292 506.799C287.292 506.799 287.292 509.308 287.292 510.144C287.292 510.144 287.292 507.635 287.292 506.799ZM370.73 425.678C370.73 425.678 370.256 426.514 369.782 427.35C369.782 427.35 369.782 425.678 370.73 425.678ZM387.323 585.411C387.323 585.411 388.271 582.902 388.271 581.23C388.271 582.902 387.797 583.739 387.323 585.411ZM440.42 551.123H440.894C440.894 551.123 439.945 551.123 439.471 551.123C439.471 551.123 439.471 551.123 439.945 551.123H440.42ZM562.732 495.927C562.732 495.927 562.732 492.582 562.732 490.909C562.258 492.582 562.732 494.254 562.732 495.927ZM614.881 436.55C614.881 436.55 614.881 436.55 615.355 436.55C615.355 436.55 615.355 436.55 614.881 436.55ZM559.413 347.902L559.887 347.065C559.887 347.065 559.887 347.065 560.362 347.065H559.887C559.887 347.065 559.887 347.902 559.887 348.738L559.413 347.902ZM553.724 367.973C553.724 367.973 553.724 370.482 552.776 371.318C552.776 370.482 554.199 370.482 553.724 367.973ZM490.198 229.147C490.198 229.147 490.198 229.147 490.672 229.147H490.198ZM459.857 180.641C459.857 180.641 459.857 180.641 460.331 180.641H459.857ZM416.242 50.1781C416.242 50.1781 416.242 50.1781 416.242 51.0144C416.242 51.0144 416.242 51.0144 416.242 50.1781ZM384.952 68.5768C384.952 66.9041 384.004 66.9042 383.53 66.0679C383.53 66.0679 384.478 67.7405 384.952 68.5768ZM365.041 84.4665C365.041 84.4665 365.515 84.4665 365.515 85.3028C365.515 85.3028 365.515 85.3028 365.041 85.3028C365.041 85.3028 365.041 84.4665 365.041 83.6302V84.4665ZM325.692 52.687C325.692 52.687 323.322 54.3596 322.374 55.1959C323.796 55.1959 324.744 55.1959 325.692 52.687ZM318.581 55.1959C318.581 55.1959 318.581 55.1959 318.581 54.3596C318.581 54.3596 318.581 55.1959 319.055 55.1959H318.581ZM73.4823 272.634C73.4823 272.634 73.4823 271.798 72.5341 271.798C72.5341 271.798 73.0082 271.798 73.4823 272.634ZM118.994 467.493C118.994 467.493 116.623 471.674 115.201 474.183C115.201 474.183 118.046 470.002 118.994 467.493ZM141.75 502.617V503.454C141.75 503.454 141.276 503.454 140.802 503.454C140.802 503.454 141.276 503.454 141.75 502.617ZM155.024 480.037C155.024 480.037 155.024 478.365 154.55 477.528C154.55 477.528 155.024 478.365 155.498 479.201C155.498 479.201 155.498 479.201 155.024 480.037ZM246.995 553.632C246.521 553.632 246.047 553.632 245.573 554.468C245.573 554.468 246.521 554.468 246.995 553.632ZM286.344 511.817C286.344 511.817 286.344 511.817 286.344 510.98C286.344 510.98 287.292 511.817 287.766 512.653C287.292 512.653 286.818 511.817 286.344 511.817ZM439.471 570.358C439.471 570.358 440.42 570.358 440.42 571.194C439.945 571.194 439.471 571.194 438.997 571.194C438.997 571.194 438.997 570.358 438.997 569.522L439.471 570.358ZM632.896 336.193C632.896 336.193 632.896 336.193 632.896 335.357V336.193ZM578.851 332.012C578.851 332.012 578.851 332.012 578.377 331.176C578.377 331.176 578.377 332.012 578.851 332.012ZM539.976 343.72C539.976 343.72 539.502 342.884 539.028 342.047C539.028 342.047 539.502 342.884 539.976 342.884C539.976 342.884 539.976 342.884 539.976 343.72ZM45.9857 444.913C45.9857 444.913 46.4598 448.258 47.882 448.258C47.882 448.258 46.9338 445.749 45.9857 444.913ZM82.4898 439.895C82.4898 439.895 82.0157 439.059 81.5416 438.222C81.5416 438.222 82.4898 439.059 82.4898 439.895ZM96.7121 459.966C96.7121 459.966 96.7121 459.966 97.1862 459.966C97.1862 459.966 97.1862 459.966 96.7121 459.966ZM303.411 548.614C303.411 548.614 303.411 548.614 303.885 547.778C303.885 547.778 303.411 547.778 302.937 548.614H303.411ZM312.892 519.343C312.892 519.343 312.892 519.343 312.892 518.507C312.892 518.507 312.892 518.507 312.418 518.507L312.892 519.343ZM661.814 362.119C661.814 362.119 661.814 361.282 661.814 360.446C661.814 360.446 661.814 361.282 661.814 362.119ZM656.6 342.047C656.6 342.047 656.6 342.047 657.074 342.047H656.6ZM521.487 214.93C521.487 214.93 521.487 214.093 521.487 213.257C521.487 213.257 521.487 214.093 521.487 214.93ZM282.077 107.047C282.077 107.047 282.077 107.047 281.603 107.047C281.603 107.047 282.551 105.374 283.025 105.374C283.025 105.374 282.551 107.047 282.077 107.883V107.047ZM244.625 158.061C244.625 158.061 243.677 158.897 243.677 160.57C243.203 160.57 242.729 160.57 242.254 160.57C243.203 160.57 243.677 159.734 244.151 158.897L244.625 158.061ZM172.565 104.538C172.565 104.538 172.565 104.538 172.565 103.701V104.538ZM74.9045 478.365C74.9045 478.365 74.9045 478.365 74.9045 479.201C74.9045 479.201 74.9045 479.201 74.9045 478.365ZM112.357 539.415C112.357 539.415 111.883 540.251 111.409 539.415C111.409 539.415 111.883 539.415 112.357 539.415ZM328.063 524.361C328.063 524.361 328.063 524.361 328.063 525.198C328.063 525.198 328.063 525.198 328.063 524.361ZM528.598 530.215C528.598 530.215 528.124 531.052 527.65 531.888C527.65 531.888 527.65 530.215 528.124 530.215H528.598ZM600.658 321.976C600.658 321.976 599.71 322.813 599.236 323.649C599.236 323.649 599.71 322.813 600.184 321.976H600.658ZM594.969 323.649C594.969 323.649 595.443 323.649 595.917 323.649C595.917 323.649 595.443 323.649 594.969 323.649ZM471.709 171.442C471.709 171.442 471.709 171.442 472.183 171.442C472.183 171.442 472.183 171.442 471.709 171.442ZM446.583 93.6658C446.583 93.6658 446.583 93.6658 446.108 93.6658H446.583ZM419.56 100.356C419.56 100.356 419.56 98.6836 419.56 97.8473C419.56 97.8473 420.034 99.5199 420.508 99.5199C420.508 99.5199 420.508 99.5199 420.034 99.5199L419.56 100.356ZM409.13 78.6124C409.13 78.6124 409.604 78.6124 410.078 78.6124C410.078 78.6124 410.078 78.6124 409.604 79.4487L409.13 78.6124ZM309.574 42.6514C309.574 42.6514 309.574 42.6514 309.574 43.4877C309.574 43.4877 309.574 43.4877 309.574 42.6514ZM213.81 99.5199C213.81 99.5199 213.81 99.5199 213.336 99.5199H213.81ZM206.224 112.901C206.224 112.901 206.224 115.41 205.276 115.41C205.276 114.573 205.75 113.737 206.224 112.901ZM29.3929 365.464C29.3929 365.464 29.3929 363.791 29.3929 362.955C29.3929 362.955 29.3929 362.955 29.3929 363.791C29.3929 363.791 29.3929 364.628 29.3929 365.464ZM17.5409 403.098C17.5409 403.098 17.5409 403.098 17.5409 402.261C17.5409 402.261 17.5409 402.261 17.5409 403.098ZM10.4297 420.66C10.4297 420.66 10.4297 418.151 9.48158 418.151C9.48158 418.151 9.95566 419.824 10.4297 420.66ZM88.6528 523.525C88.6528 523.525 88.6528 525.198 88.6528 526.034C88.6528 524.361 88.6528 523.525 88.6528 522.689V523.525ZM360.774 586.248C360.774 586.248 359.352 585.411 358.878 585.411C359.352 585.411 360.3 585.411 360.774 586.248ZM622.94 287.688C622.94 287.688 622.94 287.688 622.94 288.524C622.94 288.524 622.94 288.524 622.94 287.688ZM471.709 179.805C471.709 179.805 471.709 179.805 471.709 180.641V179.805ZM418.612 71.922C418.612 71.922 417.664 71.922 417.664 72.7583C417.664 72.7583 418.612 72.7583 418.612 71.922ZM216.18 97.011H216.654C216.654 97.011 216.654 97.011 216.18 97.011ZM42.193 344.556C41.719 345.393 42.193 347.065 42.193 347.902C42.193 346.229 43.1412 345.393 42.193 343.72C42.193 342.884 41.719 343.72 42.193 343.72V344.556ZM88.1787 568.685C88.1787 568.685 87.2306 569.522 86.7565 570.358C86.7565 570.358 87.7046 569.522 88.1787 568.685ZM84.8602 577.885C84.8602 577.885 84.8602 577.885 84.8602 578.721C84.8602 578.721 84.8602 578.721 84.8602 577.885ZM91.9713 567.849C91.9713 567.849 91.9714 567.849 92.4454 567.849C92.4454 567.849 92.4454 569.522 91.9713 570.358C91.9713 570.358 91.4973 568.685 91.9713 568.685V567.849ZM154.55 520.18C154.55 520.18 154.076 524.361 154.076 526.034C154.076 526.034 155.024 521.852 154.55 520.18ZM202.432 510.98H203.38C203.38 510.98 202.906 510.98 202.432 510.98ZM319.055 538.578C319.055 538.578 319.055 538.578 319.529 538.578H319.055ZM347.974 526.87C347.974 526.87 347.974 526.87 347.974 527.707V526.87ZM351.767 520.18V521.016C351.293 521.016 350.819 521.016 350.344 521.016C350.344 521.016 351.293 521.016 351.293 519.343L351.767 520.18ZM356.982 556.141C356.982 556.141 356.982 556.141 357.456 556.141H356.982ZM356.508 623.881C356.508 623.881 356.033 624.718 356.033 625.554C356.033 625.554 356.508 624.718 356.982 623.881H356.508ZM435.205 596.283C435.205 596.283 435.205 597.12 435.205 597.956C435.205 597.956 435.205 597.12 435.205 596.283ZM529.546 546.941C529.546 546.941 529.546 547.778 530.02 547.778C530.02 547.778 530.02 546.941 529.546 546.941ZM63.5266 241.691C63.5266 241.691 63.5266 241.691 63.5266 240.855V241.691ZM29.867 512.653C29.867 512.653 29.867 512.653 29.867 511.817C29.867 511.817 29.867 511.817 29.867 512.653ZM38.8745 494.254C38.8745 494.254 40.2967 491.746 41.2449 490.909C40.2967 491.746 39.3486 492.582 38.8745 494.254ZM39.8226 592.938C39.8226 592.938 41.719 591.265 42.6671 590.429C42.6671 590.429 40.2967 591.265 39.8226 592.938ZM103.349 537.742C103.349 537.742 103.349 536.906 103.349 536.07C103.349 536.07 103.349 536.906 103.349 537.742ZM85.3342 582.902C85.3342 582.902 86.2824 582.066 86.7565 581.23C86.7565 581.23 85.8083 581.23 85.3342 582.902ZM628.155 245.036C628.155 245.036 628.629 240.855 628.629 239.182C629.103 241.691 629.577 244.2 628.629 245.036H628.155ZM552.776 246.709C552.776 246.709 552.776 246.709 553.25 246.709C553.25 246.709 553.25 246.709 552.776 246.709ZM464.123 101.193C464.123 101.193 464.124 101.193 463.649 101.193H464.123ZM211.439 66.9042C211.439 66.9042 211.439 66.9042 211.439 66.0679C211.439 66.0679 211.439 66.0678 211.439 66.9042ZM109.038 151.371H109.512C109.512 151.371 109.038 151.371 108.564 151.371H109.038ZM54.9932 231.656V233.328C54.9932 233.328 54.9932 232.492 54.9932 231.656ZM27.0225 352.919C27.0225 352.919 27.0225 353.756 26.5484 353.756C26.5484 353.756 27.4966 353.756 27.0225 352.919Z" fill="#43571C"/>
</svg>
