<svg width="44" height="44" viewBox="0 0 44 44" fill="none" xmlns="http://www.w3.org/2000/svg">
<rect width="44" height="44" rx="20" transform="matrix(-1 0 0 1 44 0)" fill="#2A2115"/>
<path d="M11.9395 23.0595C11.3535 22.4736 11.3535 21.522 11.9395 20.936L19.4399 13.4356C20.0259 12.8496 20.9775 12.8496 21.5635 13.4356C22.1494 14.0215 22.1494 14.9732 21.5635 15.5591L16.6179 20.5H30.9999C31.8297 20.5 32.5 21.1704 32.5 22.0001C32.5 22.8298 31.8297 23.5002 30.9999 23.5002H16.6226L21.5588 28.4411C22.1447 29.0271 22.1447 29.9787 21.5588 30.5647C20.9728 31.1506 20.0212 31.1506 19.4352 30.5647L11.9348 23.0642L11.9395 23.0595Z" fill="white"/>
</svg>
