<svg width="44" height="44" viewBox="0 0 44 44" fill="none" xmlns="http://www.w3.org/2000/svg">
<rect width="44" height="44" rx="20" fill="#2A2115"/>
<path d="M32.0605 23.0595C32.6465 22.4736 32.6465 21.522 32.0605 20.936L24.5601 13.4356C23.9741 12.8496 23.0225 12.8496 22.4365 13.4356C21.8506 14.0215 21.8506 14.9732 22.4365 15.5591L27.3821 20.5H13.0001C12.1703 20.5 11.5 21.1704 11.5 22.0001C11.5 22.8298 12.1703 23.5002 13.0001 23.5002H27.3774L22.4412 28.4411C21.8553 29.0271 21.8553 29.9787 22.4412 30.5647C23.0272 31.1506 23.9788 31.1506 24.5648 30.5647L32.0652 23.0642L32.0605 23.0595Z" fill="white"/>
</svg>
