<svg width="24" height="24" viewBox="0 0 24 24" fill="none" xmlns="http://www.w3.org/2000/svg">
<path d="M11.9992 1.71429C11.2881 1.71429 10.7135 2.28884 10.7135 3V3.77143C7.78048 4.36607 5.57066 6.96161 5.57066 10.0714V10.8268C5.57066 12.7152 4.87557 14.5393 3.622 15.9536L3.32468 16.2871C2.98718 16.6647 2.90682 17.2071 3.11173 17.6692C3.31664 18.1313 3.7787 18.4286 4.28495 18.4286H19.7135C20.2198 18.4286 20.6778 18.1313 20.8867 17.6692C21.0957 17.2071 21.0113 16.6647 20.6738 16.2871L20.3765 15.9536C19.1229 14.5393 18.4278 12.7192 18.4278 10.8268V10.0714C18.4278 6.96161 16.218 4.36607 13.2849 3.77143V3C13.2849 2.28884 12.7104 1.71429 11.9992 1.71429ZM13.8193 21.5344C14.3015 21.0522 14.5707 20.3973 14.5707 19.7143H11.9992H9.4278C9.4278 20.3973 9.697 21.0522 10.1791 21.5344C10.6613 22.0165 11.3162 22.2857 11.9992 22.2857C12.6823 22.2857 13.3372 22.0165 13.8193 21.5344Z" fill="#B3AE74"/>
</svg>
