<svg width="19" height="14" viewBox="0 0 19 14" fill="none" xmlns="http://www.w3.org/2000/svg">
<path d="M9.07145 0.964559V11.036L3.50002 9.96456V1.03688C3.50002 0.506524 3.9768 0.102059 4.49912 0.190452L9.07145 0.964559ZM3.33127 10.9583L9.50002 12.1931L15.6688 10.9583C16.0706 10.878 16.3572 10.5271 16.3572 10.1172V0.876167L17.0456 0.739559C17.5759 0.635095 18.0714 1.03956 18.0714 1.58063V11.403C18.0714 11.8128 17.7822 12.1637 17.3831 12.244L9.50002 13.8217L1.61698 12.244C1.21787 12.1663 0.928589 11.8128 0.928589 11.4056V1.58063C0.928589 1.03956 1.42412 0.635095 1.95448 0.742238L2.64287 0.878845V10.1199C2.64287 10.5297 2.93216 10.8806 3.33127 10.961V10.9583ZM9.92859 11.036V0.964559L14.5009 0.190452C15.0232 0.102059 15.5 0.506524 15.5 1.03688V9.96456L9.92859 11.036Z" fill="#45603F"/>
</svg>
