<svg width="19" height="12" viewBox="0 0 19 12" fill="none" xmlns="http://www.w3.org/2000/svg">
<path d="M0.928589 2.19047C0.928589 1.13987 1.78276 0.285706 2.83335 0.285706H10.4524C11.503 0.285706 12.3572 1.13987 12.3572 2.19047V9.80951C12.3572 10.8601 11.503 11.7143 10.4524 11.7143H2.83335C1.78276 11.7143 0.928589 10.8601 0.928589 9.80951V2.19047ZM17.5685 1.35118C17.878 1.51785 18.0714 1.83928 18.0714 2.19047V9.80951C18.0714 10.1607 17.878 10.4821 17.5685 10.6488C17.2589 10.8155 16.8839 10.7976 16.5893 10.6012L13.7322 8.69642L13.3095 8.41368V7.90475V4.09523V3.5863L13.7322 3.30356L16.5893 1.3988C16.881 1.20535 17.256 1.18452 17.5685 1.35118Z" fill="#45603F"/>
</svg>
