<svg width="18" height="18" viewBox="0 0 18 18" fill="none" xmlns="http://www.w3.org/2000/svg">
<path d="M9.00002 0.428558C10.2322 0.428558 11.3036 1.12164 11.8427 2.1395C12.9442 1.80133 14.1897 2.06918 15.0603 2.93972C15.9308 3.81025 16.1987 5.05914 15.8605 6.15735C16.8784 6.69642 17.5714 7.76784 17.5714 8.99999C17.5714 10.2321 16.8784 11.3036 15.8605 11.8426C16.1987 12.9442 15.9308 14.1897 15.0603 15.0603C14.1897 15.9308 12.9409 16.1986 11.8427 15.8605C11.3036 16.8783 10.2322 17.5714 9.00002 17.5714C7.76787 17.5714 6.69645 16.8783 6.15738 15.8605C5.05582 16.1986 3.81029 15.9308 2.93975 15.0603C2.06921 14.1897 1.80136 12.9408 2.13953 11.8426C1.12167 11.3036 0.428589 10.2321 0.428589 8.99999C0.428589 7.76784 1.12167 6.69642 2.13953 6.15735C1.80136 5.05579 2.06921 3.81025 2.93975 2.93972C3.81029 2.06918 5.05917 1.80133 6.15738 2.1395C6.69645 1.12164 7.76787 0.428558 9.00002 0.428558ZM12.7835 7.42633C13.0982 7.11159 13.0982 6.60267 12.7835 6.29128C12.4688 5.9799 11.9598 5.97655 11.6485 6.29128L7.93194 10.0078L6.35828 8.43414C6.04354 8.11941 5.53462 8.11941 5.22323 8.43414C4.91185 8.74887 4.9085 9.2578 5.22323 9.56918L7.36609 11.712C7.68082 12.0268 8.18975 12.0268 8.50113 11.712L12.7835 7.42633Z" fill="#5D7556"/>
</svg>
