<svg width="21" height="20" viewBox="0 0 21 20" fill="none" xmlns="http://www.w3.org/2000/svg">
<g clip-path="url(#clip0_627_3435)">
<path d="M10.835 20C13.4871 20 16.0307 18.9464 17.906 17.0711C19.7814 15.1957 20.835 12.6522 20.835 10C20.835 7.34784 19.7814 4.8043 17.906 2.92893C16.0307 1.05357 13.4871 0 10.835 0C8.1828 0 5.63926 1.05357 3.76389 2.92893C1.88853 4.8043 0.834961 7.34784 0.834961 10C0.834961 12.6522 1.88853 15.1957 3.76389 17.0711C5.63926 18.9464 8.1828 20 10.835 20ZM15.249 8.16406L10.249 13.1641C9.88184 13.5312 9.28809 13.5312 8.9248 13.1641L6.4248 10.6641C6.05762 10.2969 6.05762 9.70312 6.4248 9.33984C6.79199 8.97656 7.38574 8.97266 7.74902 9.33984L9.58496 11.1758L13.9209 6.83594C14.2881 6.46875 14.8818 6.46875 15.2451 6.83594C15.6084 7.20312 15.6123 7.79687 15.2451 8.16016L15.249 8.16406Z" fill="#33AAC5"/>
</g>
<defs>
<clipPath id="clip0_627_3435">
<rect width="20" height="20" fill="white" transform="translate(0.834961)"/>
</clipPath>
</defs>
</svg>
