<svg width="21" height="20" viewBox="0 0 21 20" fill="none" xmlns="http://www.w3.org/2000/svg">
<path d="M1.92859 10C1.92859 7.72672 2.83165 5.54654 4.4391 3.93909C6.04656 2.33163 8.22673 1.42857 10.5 1.42857C12.7733 1.42857 14.9535 2.33163 16.5609 3.93909C18.1684 5.54654 19.0714 7.72672 19.0714 10C19.0714 12.2733 18.1684 14.4535 16.5609 16.0609C14.9535 17.6684 12.7733 18.5714 10.5 18.5714C8.22673 18.5714 6.04656 17.6684 4.4391 16.0609C2.83165 14.4535 1.92859 12.2733 1.92859 10ZM10.5 4.91072C10.2958 4.91072 10.1083 5.0279 10.0212 5.20871L8.80917 7.6663L6.09712 8.06139C5.89622 8.09152 5.72881 8.23214 5.6652 8.42634C5.60158 8.62054 5.65515 8.83482 5.79912 8.97545L7.76118 10.8906L7.29912 13.5926C7.26564 13.7935 7.346 13.9978 7.51341 14.115C7.68082 14.2321 7.89846 14.2522 8.07591 14.1551L10.5 12.8828L12.9275 14.1585C13.1083 14.2522 13.3259 14.2388 13.4933 14.1183C13.6607 13.9978 13.7411 13.7969 13.7076 13.596L13.2456 10.894L15.2076 8.9788C15.3549 8.83482 15.4052 8.62389 15.3415 8.42969C15.2779 8.23549 15.1105 8.09487 14.9096 8.06473L12.1942 7.66964L10.9822 5.21206C10.8918 5.0279 10.7043 4.91406 10.5034 4.91406L10.5 4.91072Z" fill="#45603F"/>
</svg>
