<svg width="19" height="18" viewBox="0 0 19 18" fill="none" xmlns="http://www.w3.org/2000/svg">
<path d="M9.50002 0.428558C11.7733 0.428558 13.9535 1.33162 15.5609 2.93907C17.1684 4.54653 18.0714 6.7267 18.0714 8.99999C18.0714 11.2733 17.1684 13.4534 15.5609 15.0609C13.9535 16.6684 11.7733 17.5714 9.50002 17.5714C7.22673 17.5714 5.04656 16.6684 3.4391 15.0609C1.83165 13.4534 0.928589 11.2733 0.928589 8.99999C0.928589 6.7267 1.83165 4.54653 3.4391 2.93907C5.04656 1.33162 7.22673 0.428558 9.50002 0.428558ZM8.69645 4.44642V8.99999C8.69645 9.26784 8.83037 9.51896 9.0547 9.66963L12.269 11.8125C12.6373 12.0603 13.1362 11.9598 13.3839 11.5882C13.6317 11.2165 13.5313 10.721 13.1596 10.4732L10.3036 8.57141V4.44642C10.3036 4.0011 9.94533 3.64284 9.50002 3.64284C9.0547 3.64284 8.69645 4.0011 8.69645 4.44642Z" fill="#45603F"/>
</svg>
