<svg width="22" height="22" viewBox="0 0 22 22" fill="none" xmlns="http://www.w3.org/2000/svg">
<path d="M11.0001 21.2857C13.728 21.2857 16.3442 20.202 18.2732 18.2731C20.2021 16.3442 21.2858 13.7279 21.2858 11C21.2858 8.27206 20.2021 5.65585 18.2732 3.7269C16.3442 1.79796 13.728 0.714287 11.0001 0.714287C8.27213 0.714287 5.65592 1.79796 3.72697 3.7269C1.79803 5.65585 0.714355 8.27206 0.714355 11C0.714355 13.7279 1.79803 16.3442 3.72697 18.2731C5.65592 20.202 8.27213 21.2857 11.0001 21.2857ZM7.53668 7.35581C7.85409 6.45982 8.70587 5.85714 9.65811 5.85714H12.0005C13.4027 5.85714 14.5358 6.9942 14.5358 8.39241C14.5358 9.30045 14.0496 10.1402 13.2621 10.5942L11.9644 11.3375C11.9563 11.8598 11.5264 12.2857 11.0001 12.2857C10.4657 12.2857 10.0358 11.8558 10.0358 11.3214V10.779C10.0358 10.4335 10.2206 10.1161 10.5219 9.94331L12.3019 8.92277C12.4907 8.81429 12.6072 8.61339 12.6072 8.39643C12.6072 8.05893 12.334 7.78973 12.0005 7.78973H9.65811C9.5215 7.78973 9.40096 7.87411 9.35677 8.00268L9.3407 8.05089C9.16391 8.55313 8.60945 8.81429 8.11123 8.6375C7.61302 8.46072 7.34784 7.90625 7.52462 7.40804L7.5407 7.35982L7.53668 7.35581ZM9.71436 14.8571C9.71436 14.5162 9.84982 14.1891 10.0909 13.948C10.3321 13.7069 10.6591 13.5714 11.0001 13.5714C11.3411 13.5714 11.6681 13.7069 11.9092 13.948C12.1503 14.1891 12.2858 14.5162 12.2858 14.8571C12.2858 15.1981 12.1503 15.5252 11.9092 15.7663C11.6681 16.0074 11.3411 16.1429 11.0001 16.1429C10.6591 16.1429 10.3321 16.0074 10.0909 15.7663C9.84982 15.5252 9.71436 15.1981 9.71436 14.8571Z" fill="#B3AE74"/>
</svg>
