<svg width="24" height="24" viewBox="0 0 24 24" fill="none" xmlns="http://www.w3.org/2000/svg">
<path d="M18.2184 11.0069L18.6729 10.5525L17.3094 9.18903L14.8118 6.69142L13.4484 5.32799L12.9939 5.78247L12.0849 6.69142L4.07329 14.7031C3.65501 15.1214 3.34934 15.6402 3.18042 16.2073L1.75666 21.0497C1.65611 21.3875 1.74862 21.7535 2.002 22.0029C2.25538 22.2522 2.61735 22.3447 2.95519 22.2482L7.79356 20.8244C8.36065 20.6555 8.87948 20.3499 9.29776 19.9316L17.3094 11.9199L18.2184 11.0069ZM8.15151 17.7799L7.78552 18.6928C7.62464 18.8175 7.44365 18.91 7.2506 18.9703L4.10546 19.8954L5.0305 16.7543C5.08681 16.5572 5.18334 16.3762 5.30802 16.2193L6.22099 15.8534V17.1404C6.22099 17.4943 6.51057 17.7839 6.8645 17.7839H8.15151V17.7799ZM16.3039 2.4684L15.7248 3.05158L14.8158 3.96054L14.3573 4.41501L15.7208 5.77844L18.2184 8.27606L19.5818 9.63949L20.0363 9.18501L20.9452 8.27606L21.5284 7.69288C22.5339 6.6874 22.5339 5.05852 21.5284 4.05304L19.9478 2.4684C18.9423 1.46292 17.3134 1.46292 16.308 2.4684H16.3039ZM14.3976 9.22523L8.60599 15.0168C8.35663 15.2662 7.94639 15.2662 7.69703 15.0168C7.44768 14.7674 7.44768 14.3572 7.69703 14.1078L13.4886 8.31628C13.738 8.06692 14.1482 8.06692 14.3976 8.31628C14.6469 8.56563 14.6469 8.97587 14.3976 9.22523Z" fill="#B5C5D0"/>
</svg>
