<svg width="92" height="65" viewBox="0 0 92 65" fill="none" xmlns="http://www.w3.org/2000/svg">
<path d="M91.0741 13.8818C91.0741 13.8818 90.1776 7.61267 87.4147 4.84903C83.9169 1.22722 79.993 1.21267 78.2 0.994489C65.3259 0.0781252 46.0147 0.078125 46.0147 0.078125H45.9706C45.9706 0.078125 26.6594 0.0781252 13.7853 0.994489C11.9923 1.21267 8.06837 1.22722 4.57061 4.84903C1.80767 7.61267 0.911182 13.8818 0.911182 13.8818C0.911182 13.8818 -1.75196e-08 21.2418 -1.75196e-08 28.6163V35.5254C-1.75196e-08 42.8854 0.925879 50.2454 0.925879 50.2454C0.925879 50.2454 1.82236 56.5145 4.5853 59.2781C8.08307 62.8999 12.6831 62.7836 14.7259 63.1618C22.0741 63.8599 46 64.0781 46 64.0781C46 64.0781 65.3259 64.049 78.2 63.1327C79.993 62.9145 83.9169 62.8999 87.4147 59.2781C90.1776 56.5145 91.0741 50.2454 91.0741 50.2454C91.0741 50.2454 92 42.8854 92 35.5254V28.6163C92 21.2418 91.0741 13.8818 91.0741 13.8818Z" fill="#EEFD64"/>
<path d="M38.9827 21.748V40.9262L57.3514 31.3699L38.9827 21.748Z" fill="#2A2115"/>
</svg>
