<svg width="20" height="20" viewBox="0 0 20 20" fill="none" xmlns="http://www.w3.org/2000/svg">
<path d="M1.42871 10C1.42871 7.72673 2.33177 5.54656 3.93922 3.9391C5.54668 2.33165 7.72685 1.42859 10.0001 1.42859C12.2734 1.42859 14.4536 2.33165 16.0611 3.9391C17.6685 5.54656 18.5716 7.72673 18.5716 10C18.5716 12.2733 17.6685 14.4535 16.0611 16.0609C14.4536 17.6684 12.2734 18.5714 10.0001 18.5714C7.72685 18.5714 5.54668 17.6684 3.93922 16.0609C2.33177 14.4535 1.42871 12.2733 1.42871 10ZM7.7334 6.35381C7.47893 6.49444 7.32157 6.76564 7.32157 7.05359V12.9464C7.32157 13.2377 7.47893 13.5056 7.7334 13.6462C7.98786 13.7868 8.2959 13.7835 8.54701 13.6295L13.3684 10.6831C13.6062 10.5357 13.7535 10.2779 13.7535 9.99667C13.7535 9.71542 13.6062 9.45761 13.3684 9.31028L8.54701 6.36386C8.29925 6.21319 7.98786 6.20649 7.7334 6.34712V6.35381Z" fill="#2F2F2F"/>
</svg>
