<svg width="24" height="24" viewBox="0 0 24 24" fill="none" xmlns="http://www.w3.org/2000/svg">
<path d="M0 12C0 8.8174 1.26428 5.76516 3.51472 3.51472C5.76516 1.26428 8.8174 0 12 0C15.1826 0 18.2348 1.26428 20.4853 3.51472C22.7357 5.76516 24 8.8174 24 12C24 15.1826 22.7357 18.2348 20.4853 20.4853C18.2348 22.7357 15.1826 24 12 24C8.8174 24 5.76516 22.7357 3.51472 20.4853C1.26428 18.2348 0 15.1826 0 12ZM12 4.875C11.7141 4.875 11.4516 5.03906 11.3297 5.29219L9.63281 8.73281L5.83594 9.28594C5.55469 9.32812 5.32031 9.525 5.23125 9.79688C5.14219 10.0688 5.21719 10.3687 5.41875 10.5656L8.16562 13.2469L7.51875 17.0297C7.47187 17.3109 7.58438 17.5969 7.81875 17.7609C8.05313 17.925 8.35781 17.9531 8.60625 17.8172L12 16.0359L15.3984 17.8219C15.6516 17.9531 15.9562 17.9344 16.1906 17.7656C16.425 17.5969 16.5375 17.3156 16.4906 17.0344L15.8438 13.2516L18.5906 10.5703C18.7969 10.3687 18.8672 10.0734 18.7781 9.80156C18.6891 9.52969 18.4547 9.33281 18.1734 9.29062L14.3719 8.7375L12.675 5.29688C12.5484 5.03906 12.2859 4.87969 12.0047 4.87969L12 4.875Z" fill="black"/>
</svg>
