<svg width="164" height="44" viewBox="0 0 164 44" fill="none" xmlns="http://www.w3.org/2000/svg">
<g filter="url(#filter0_d_287_3400)">
<path d="M0 8C0 3.58172 3.58172 0 8 0H152C156.418 0 160 3.58172 160 8V32C160 36.4183 156.418 40 152 40H8C3.58172 40 0 36.4183 0 32V8Z" fill="#DAE462" shape-rendering="crispEdges"/>
<path d="M53.712 22.354C53.5347 22.998 53.25 23.53 52.858 23.95C52.466 24.3607 51.9993 24.664 51.458 24.86C50.9167 25.0467 50.3193 25.14 49.666 25.14C48.7327 25.14 47.9253 24.9533 47.244 24.58C46.5627 24.1973 46.04 23.6513 45.676 22.942C45.312 22.2327 45.13 21.3787 45.13 20.38C45.13 19.3813 45.312 18.5273 45.676 17.818C46.04 17.1087 46.5627 16.5673 47.244 16.194C47.9253 15.8113 48.728 15.62 49.652 15.62C50.296 15.62 50.8887 15.7133 51.43 15.9C51.9713 16.0773 52.4287 16.3527 52.802 16.726C53.1753 17.0993 53.4413 17.58 53.6 18.168L51.486 19.022C51.3553 18.4433 51.1407 18.0467 50.842 17.832C50.5527 17.6173 50.184 17.51 49.736 17.51C49.2973 17.51 48.9147 17.6173 48.588 17.832C48.2707 18.0467 48.0233 18.3687 47.846 18.798C47.678 19.218 47.594 19.7453 47.594 20.38C47.594 21.0053 47.6733 21.5327 47.832 21.962C47.9907 22.3913 48.2287 22.7133 48.546 22.928C48.8727 23.1427 49.274 23.25 49.75 23.25C50.198 23.25 50.576 23.1287 50.884 22.886C51.2013 22.634 51.416 22.2513 51.528 21.738L53.712 22.354ZM58.4953 17.86C59.2326 17.86 59.8766 18.0047 60.4273 18.294C60.9873 18.574 61.4213 18.9893 61.7293 19.54C62.0466 20.0813 62.2053 20.7347 62.2053 21.5C62.2053 22.2653 62.0466 22.9233 61.7293 23.474C61.4213 24.0153 60.9873 24.4307 60.4273 24.72C59.8766 25 59.2326 25.14 58.4953 25.14C57.7766 25.14 57.1373 25 56.5773 24.72C56.0173 24.4307 55.5786 24.0153 55.2613 23.474C54.9533 22.9233 54.7993 22.2653 54.7993 21.5C54.7993 20.7347 54.9533 20.0813 55.2613 19.54C55.5786 18.9893 56.0173 18.574 56.5773 18.294C57.1373 18.0047 57.7766 17.86 58.4953 17.86ZM58.4953 19.554C58.2246 19.554 57.9913 19.6193 57.7953 19.75C57.5993 19.8807 57.45 20.0907 57.3473 20.38C57.2446 20.6693 57.1933 21.0427 57.1933 21.5C57.1933 21.9573 57.2446 22.3307 57.3473 22.62C57.45 22.9 57.5993 23.11 57.7953 23.25C57.9913 23.3807 58.2246 23.446 58.4953 23.446C58.7753 23.446 59.0133 23.3807 59.2093 23.25C59.4053 23.11 59.5546 22.9 59.6573 22.62C59.76 22.3307 59.8113 21.9573 59.8113 21.5C59.8113 21.0427 59.76 20.6693 59.6573 20.38C59.5546 20.0907 59.4053 19.8807 59.2093 19.75C59.0133 19.6193 58.7753 19.554 58.4953 19.554ZM63.8242 25V18H65.9522L66.0782 20.408L65.8122 20.142C65.9055 19.638 66.0688 19.218 66.3022 18.882C66.5448 18.546 66.8435 18.294 67.1982 18.126C67.5622 17.9487 67.9682 17.86 68.4162 17.86C68.9015 17.86 69.3215 17.9533 69.6762 18.14C70.0402 18.3267 70.3248 18.602 70.5302 18.966C70.7355 19.33 70.8382 19.7873 70.8382 20.338V25H68.4582V20.968C68.4582 20.4827 68.3648 20.1467 68.1782 19.96C67.9915 19.7733 67.7535 19.68 67.4642 19.68C67.2402 19.68 67.0302 19.736 66.8342 19.848C66.6382 19.9507 66.4842 20.1187 66.3722 20.352C66.2602 20.5853 66.2042 20.898 66.2042 21.29V25H63.8242ZM75.6708 15.774V22.508C75.6708 22.844 75.7501 23.0867 75.9088 23.236C76.0768 23.376 76.3054 23.446 76.5948 23.446C76.8188 23.446 77.0101 23.4227 77.1688 23.376C77.3368 23.32 77.4861 23.2407 77.6168 23.138L77.8688 24.608C77.6354 24.776 77.3414 24.9067 76.9868 25C76.6321 25.0933 76.2681 25.14 75.8948 25.14C75.3628 25.14 74.9008 25.0653 74.5088 24.916C74.1261 24.7667 73.8274 24.5287 73.6128 24.202C73.4074 23.8753 73.3001 23.4413 73.2908 22.9V16.432L75.6708 15.774ZM77.7568 18V19.694H72.0868V18H77.7568ZM80.3261 17.188C79.8408 17.188 79.4861 17.0993 79.2621 16.922C79.0474 16.7353 78.9401 16.446 78.9401 16.054C78.9401 15.6527 79.0474 15.3633 79.2621 15.186C79.4861 14.9993 79.8408 14.906 80.3261 14.906C80.8021 14.906 81.1521 14.9993 81.3761 15.186C81.6001 15.3633 81.7121 15.6527 81.7121 16.054C81.7121 16.446 81.6001 16.7353 81.3761 16.922C81.1521 17.0993 80.8021 17.188 80.3261 17.188ZM81.5161 18V25H79.1361V18H81.5161ZM83.4903 25V18H85.6183L85.7443 20.408L85.4783 20.142C85.5717 19.638 85.735 19.218 85.9683 18.882C86.211 18.546 86.5097 18.294 86.8643 18.126C87.2283 17.9487 87.6343 17.86 88.0823 17.86C88.5677 17.86 88.9877 17.9533 89.3423 18.14C89.7063 18.3267 89.991 18.602 90.1963 18.966C90.4017 19.33 90.5043 19.7873 90.5043 20.338V25H88.1243V20.968C88.1243 20.4827 88.031 20.1467 87.8443 19.96C87.6577 19.7733 87.4197 19.68 87.1303 19.68C86.9063 19.68 86.6963 19.736 86.5003 19.848C86.3043 19.9507 86.1503 20.1187 86.0383 20.352C85.9263 20.5853 85.8703 20.898 85.8703 21.29V25H83.4903ZM94.818 25.14C94.342 25.14 93.922 25.0607 93.558 24.902C93.2033 24.734 92.9233 24.468 92.718 24.104C92.5126 23.74 92.41 23.264 92.41 22.676V18H94.79V22.116C94.79 22.564 94.8786 22.8767 95.056 23.054C95.2333 23.2313 95.4853 23.32 95.812 23.32C95.98 23.32 96.1386 23.292 96.288 23.236C96.4373 23.1707 96.568 23.0773 96.68 22.956C96.792 22.8253 96.876 22.662 96.932 22.466C96.9973 22.2607 97.03 22.0227 97.03 21.752V18H99.41V25H97.282L97.212 23.684C96.988 24.1787 96.6753 24.5473 96.274 24.79C95.8726 25.0233 95.3873 25.14 94.818 25.14ZM105.306 20.562C105.306 20.2353 105.213 19.9787 105.026 19.792C104.849 19.596 104.606 19.498 104.298 19.498C103.99 19.498 103.724 19.5773 103.5 19.736C103.285 19.8853 103.136 20.156 103.052 20.548L101.036 20.072C101.167 19.4 101.512 18.8633 102.072 18.462C102.632 18.0607 103.421 17.86 104.438 17.86C105.119 17.86 105.698 17.9627 106.174 18.168C106.659 18.364 107.028 18.6627 107.28 19.064C107.541 19.456 107.672 19.9413 107.672 20.52V23.082C107.672 23.446 107.835 23.628 108.162 23.628C108.33 23.628 108.465 23.6093 108.568 23.572L108.428 24.93C108.148 25.0607 107.807 25.126 107.406 25.126C107.042 25.126 106.72 25.07 106.44 24.958C106.16 24.8367 105.941 24.6593 105.782 24.426C105.623 24.1833 105.544 23.88 105.544 23.516V23.432L105.81 23.334C105.81 23.7353 105.689 24.0713 105.446 24.342C105.213 24.6127 104.905 24.8133 104.522 24.944C104.149 25.0747 103.757 25.14 103.346 25.14C102.87 25.14 102.455 25.0653 102.1 24.916C101.745 24.7667 101.47 24.552 101.274 24.272C101.087 23.9827 100.994 23.628 100.994 23.208C100.994 22.704 101.143 22.2887 101.442 21.962C101.75 21.626 102.231 21.3927 102.884 21.262L105.53 20.716L105.516 21.976L104.172 22.256C103.892 22.312 103.682 22.396 103.542 22.508C103.411 22.6107 103.346 22.7693 103.346 22.984C103.346 23.1893 103.421 23.3433 103.57 23.446C103.719 23.5487 103.897 23.6 104.102 23.6C104.261 23.6 104.41 23.5767 104.55 23.53C104.699 23.4833 104.83 23.4133 104.942 23.32C105.054 23.2173 105.143 23.0913 105.208 22.942C105.273 22.7927 105.306 22.6153 105.306 22.41V20.562ZM109.787 25V18H111.887L111.985 19.512C112.163 18.9893 112.424 18.5833 112.769 18.294C113.124 18.0047 113.572 17.86 114.113 17.86C114.291 17.86 114.44 17.874 114.561 17.902C114.692 17.93 114.795 17.9673 114.869 18.014L114.631 19.974C114.538 19.9367 114.417 19.9087 114.267 19.89C114.127 19.862 113.955 19.848 113.749 19.848C113.469 19.848 113.208 19.9087 112.965 20.03C112.723 20.1513 112.527 20.3333 112.377 20.576C112.237 20.8093 112.167 21.108 112.167 21.472V25H109.787Z" fill="#2F2F2F"/>
</g>
<defs>
<filter id="filter0_d_287_3400" x="0" y="0" width="164" height="44" filterUnits="userSpaceOnUse" color-interpolation-filters="sRGB">
<feFlood flood-opacity="0" result="BackgroundImageFix"/>
<feColorMatrix in="SourceAlpha" type="matrix" values="0 0 0 0 0 0 0 0 0 0 0 0 0 0 0 0 0 0 127 0" result="hardAlpha"/>
<feOffset dx="4" dy="4"/>
<feComposite in2="hardAlpha" operator="out"/>
<feColorMatrix type="matrix" values="0 0 0 0 0.654836 0 0 0 0 0.698409 0 0 0 0 0.131962 0 0 0 1 0"/>
<feBlend mode="normal" in2="BackgroundImageFix" result="effect1_dropShadow_287_3400"/>
<feBlend mode="normal" in="SourceGraphic" in2="effect1_dropShadow_287_3400" result="shape"/>
</filter>
</defs>
</svg>
